<svg width="50" height="49" viewBox="0 0 50 49" fill="none" xmlns="http://www.w3.org/2000/svg">
<path fill-rule="evenodd" clip-rule="evenodd" d="M41.585 41.085H43.0927C43.4926 41.085 43.876 41.2438 44.1588 41.5266C44.4415 41.8093 44.6004 42.1928 44.6004 42.5927C44.6004 42.9926 44.4415 43.376 44.1588 43.6588C43.876 43.9415 43.4926 44.1004 43.0927 44.1004H6.90808C6.50822 44.1004 6.12473 43.9415 5.84198 43.6588C5.55924 43.376 5.40039 42.9926 5.40039 42.5927C5.40039 42.1928 5.55924 41.8093 5.84198 41.5266C6.12473 41.2438 6.50822 41.085 6.90808 41.085H8.41578V6.40808C8.41578 6.00822 8.57462 5.62473 8.85737 5.34198C9.14012 5.05924 9.5236 4.90039 9.92347 4.90039H28.0158C28.4156 4.90039 28.7991 5.05924 29.0819 5.34198C29.3646 5.62473 29.5235 6.00822 29.5235 6.40808V10.9312H40.0773C40.4772 10.9312 40.8607 11.09 41.1434 11.3728C41.4262 11.6555 41.585 12.039 41.585 12.4389V41.085ZM26.5081 7.91578H11.4312V41.085H14.4465V36.5619C14.4465 36.1621 14.6054 35.7786 14.8881 35.4958C15.1709 35.2131 15.5544 35.0542 15.9542 35.0542H21.985C22.3849 35.0542 22.7684 35.2131 23.0511 35.4958C23.3339 35.7786 23.4927 36.1621 23.4927 36.5619V41.085H38.5696V13.9465H29.5235V36.5619C29.5235 36.9618 29.3646 37.3453 29.0819 37.628C28.7991 37.9108 28.4156 38.0696 28.0158 38.0696C27.6159 38.0696 27.2324 37.9108 26.9497 37.628C26.6669 37.3453 26.5081 36.9618 26.5081 36.5619V7.91578ZM17.4619 41.085H20.4773V38.0696H17.4619V41.085ZM14.4491 10.9315H17.4645V13.9469H14.4491V10.9315ZM14.4491 16.9621H17.4645V19.9775H14.4491V16.9621ZM17.4645 22.9926H14.4491V26.008H17.4645V22.9926ZM14.4491 29.0234H17.4645V32.0388H14.4491V29.0234ZM23.4938 10.9315H20.4784V13.9469H23.4938V10.9315ZM32.5418 22.9926H35.5572V26.008H32.5418V22.9926ZM35.5572 16.9622H32.5418V19.9776H35.5572V16.9622ZM20.4784 16.9621H23.4938V19.9775H20.4784V16.9621ZM35.5572 29.0234H32.5418V32.0388H35.5572V29.0234ZM20.4784 22.9926H23.4938V26.008H20.4784V22.9926ZM35.5572 35.0544H32.5418V38.0698H35.5572V35.0544ZM20.4784 29.0234H23.4938V32.0388H20.4784V29.0234Z" fill="#0B448E"/>
</svg>
