<svg width="21" height="20" viewBox="0 0 21 20" fill="none" xmlns="http://www.w3.org/2000/svg">
<path d="M7.25 3.00245C6.98478 3.00245 6.73043 3.10781 6.54289 3.29534C6.35536 3.48288 6.25 3.73723 6.25 4.00245C6.25 4.26767 6.35536 4.52202 6.54289 4.70956C6.73043 4.89709 6.98478 5.00245 7.25 5.00245C7.51522 5.00245 7.76957 4.89709 7.95711 4.70956C8.14464 4.52202 8.25 4.26767 8.25 4.00245C8.25 3.73723 8.14464 3.48288 7.95711 3.29534C7.76957 3.10781 7.51522 3.00245 7.25 3.00245ZM4.42 3.00245C4.6266 2.41692 5.00974 1.90988 5.5166 1.55124C6.02346 1.1926 6.62909 1 7.25 1C7.87091 1 8.47654 1.1926 8.9834 1.55124C9.49026 1.90988 9.8734 2.41692 10.08 3.00245H17.25C17.5152 3.00245 17.7696 3.10781 17.9571 3.29534C18.1446 3.48288 18.25 3.73723 18.25 4.00245C18.25 4.26767 18.1446 4.52202 17.9571 4.70956C17.7696 4.89709 17.5152 5.00245 17.25 5.00245H10.08C9.8734 5.58798 9.49026 6.09502 8.9834 6.45366C8.47654 6.81231 7.87091 7.0049 7.25 7.0049C6.62909 7.0049 6.02346 6.81231 5.5166 6.45366C5.00974 6.09502 4.6266 5.58798 4.42 5.00245H3.25C2.98478 5.00245 2.73043 4.89709 2.54289 4.70956C2.35536 4.52202 2.25 4.26767 2.25 4.00245C2.25 3.73723 2.35536 3.48288 2.54289 3.29534C2.73043 3.10781 2.98478 3.00245 3.25 3.00245H4.42ZM13.25 9.00245C12.9848 9.00245 12.7304 9.10781 12.5429 9.29534C12.3554 9.48288 12.25 9.73723 12.25 10.0025C12.25 10.2677 12.3554 10.522 12.5429 10.7096C12.7304 10.8971 12.9848 11.0025 13.25 11.0025C13.5152 11.0025 13.7696 10.8971 13.9571 10.7096C14.1446 10.522 14.25 10.2677 14.25 10.0025C14.25 9.73723 14.1446 9.48288 13.9571 9.29534C13.7696 9.10781 13.5152 9.00245 13.25 9.00245ZM10.42 9.00245C10.6266 8.41692 11.0097 7.90988 11.5166 7.55124C12.0235 7.1926 12.6291 7 13.25 7C13.8709 7 14.4765 7.1926 14.9834 7.55124C15.4903 7.90988 15.8734 8.41692 16.08 9.00245H17.25C17.5152 9.00245 17.7696 9.10781 17.9571 9.29534C18.1446 9.48288 18.25 9.73723 18.25 10.0025C18.25 10.2677 18.1446 10.522 17.9571 10.7096C17.7696 10.8971 17.5152 11.0025 17.25 11.0025H16.08C15.8734 11.588 15.4903 12.095 14.9834 12.4537C14.4765 12.8123 13.8709 13.0049 13.25 13.0049C12.6291 13.0049 12.0235 12.8123 11.5166 12.4537C11.0097 12.095 10.6266 11.588 10.42 11.0025H3.25C2.98478 11.0025 2.73043 10.8971 2.54289 10.7096C2.35536 10.522 2.25 10.2677 2.25 10.0025C2.25 9.73723 2.35536 9.48288 2.54289 9.29534C2.73043 9.10781 2.98478 9.00245 3.25 9.00245H10.42ZM7.25 15.0025C6.98478 15.0025 6.73043 15.1078 6.54289 15.2953C6.35536 15.4829 6.25 15.7372 6.25 16.0025C6.25 16.2677 6.35536 16.522 6.54289 16.7096C6.73043 16.8971 6.98478 17.0025 7.25 17.0025C7.51522 17.0025 7.76957 16.8971 7.95711 16.7096C8.14464 16.522 8.25 16.2677 8.25 16.0025C8.25 15.7372 8.14464 15.4829 7.95711 15.2953C7.76957 15.1078 7.51522 15.0025 7.25 15.0025ZM4.42 15.0025C4.6266 14.4169 5.00974 13.9099 5.5166 13.5512C6.02346 13.1926 6.62909 13 7.25 13C7.87091 13 8.47654 13.1926 8.9834 13.5512C9.49026 13.9099 9.8734 14.4169 10.08 15.0025H17.25C17.5152 15.0025 17.7696 15.1078 17.9571 15.2953C18.1446 15.4829 18.25 15.7372 18.25 16.0025C18.25 16.2677 18.1446 16.522 17.9571 16.7096C17.7696 16.8971 17.5152 17.0025 17.25 17.0025H10.08C9.8734 17.588 9.49026 18.095 8.9834 18.4537C8.47654 18.8123 7.87091 19.0049 7.25 19.0049C6.62909 19.0049 6.02346 18.8123 5.5166 18.4537C5.00974 18.095 4.6266 17.588 4.42 17.0025H3.25C2.98478 17.0025 2.73043 16.8971 2.54289 16.7096C2.35536 16.522 2.25 16.2677 2.25 16.0025C2.25 15.7372 2.35536 15.4829 2.54289 15.2953C2.73043 15.1078 2.98478 15.0025 3.25 15.0025H4.42Z" fill="#6290CB"/>
</svg>
