<svg width="50" height="49" viewBox="0 0 50 49" fill="none" xmlns="http://www.w3.org/2000/svg">
<path fill-rule="evenodd" clip-rule="evenodd" d="M41.5845 41.085H43.0922C43.4921 41.085 43.8756 41.2438 44.1583 41.5266C44.4411 41.8093 44.5999 42.1928 44.5999 42.5927C44.5999 42.9926 44.4411 43.376 44.1583 43.6588C43.8756 43.9415 43.4921 44.1004 43.0922 44.1004H6.90759C6.50773 44.1004 6.12424 43.9415 5.8415 43.6588C5.55875 43.376 5.3999 42.9926 5.3999 42.5927C5.3999 42.1928 5.55875 41.8093 5.8415 41.5266C6.12424 41.2438 6.50773 41.085 6.90759 41.085H8.41529V6.40808C8.41529 6.00822 8.57413 5.62473 8.85688 5.34198C9.13963 5.05924 9.52311 4.90039 9.92298 4.90039H28.0153C28.4151 4.90039 28.7986 5.05924 29.0814 5.34198C29.3641 5.62473 29.523 6.00822 29.523 6.40808V10.9312H40.0768C40.4767 10.9312 40.8602 11.09 41.1429 11.3728C41.4257 11.6555 41.5845 12.039 41.5845 12.4389V41.085ZM26.5076 7.91578H11.4307V41.085H14.4461V36.5619C14.4461 36.1621 14.6049 35.7786 14.8876 35.4958C15.1704 35.2131 15.5539 35.0542 15.9537 35.0542H21.9845C22.3844 35.0542 22.7679 35.2131 23.0506 35.4958C23.3334 35.7786 23.4922 36.1621 23.4922 36.5619V41.085H38.5691V13.9465H29.523V36.5619C29.523 36.9618 29.3641 37.3453 29.0814 37.628C28.7986 37.9108 28.4151 38.0696 28.0153 38.0696C27.6154 38.0696 27.2319 37.9108 26.9492 37.628C26.6664 37.3453 26.5076 36.9618 26.5076 36.5619V7.91578ZM17.4614 41.085H20.4768V38.0696H17.4614V41.085ZM14.4486 10.9315H17.464V13.9469H14.4486V10.9315ZM14.4486 16.9621H17.464V19.9775H14.4486V16.9621ZM17.464 22.9926H14.4486V26.008H17.464V22.9926ZM14.4486 29.0234H17.464V32.0388H14.4486V29.0234ZM23.4933 10.9315H20.4779V13.9469H23.4933V10.9315ZM32.5413 22.9926H35.5567V26.008H32.5413V22.9926ZM35.5567 16.9622H32.5413V19.9776H35.5567V16.9622ZM20.4779 16.9621H23.4933V19.9775H20.4779V16.9621ZM35.5567 29.0234H32.5413V32.0388H35.5567V29.0234ZM20.4779 22.9926H23.4933V26.008H20.4779V22.9926ZM35.5567 35.0544H32.5413V38.0698H35.5567V35.0544ZM20.4779 29.0234H23.4933V32.0388H20.4779V29.0234Z" fill="#0B448E"/>
</svg>
