<svg width="28" height="28" viewBox="0 0 28 28" fill="none" xmlns="http://www.w3.org/2000/svg">
<path d="M14.4382 13.4163C13.6646 13.4163 12.9227 13.1091 12.3758 12.5621C11.8288 12.0151 11.5215 11.2732 11.5215 10.4997C11.5215 9.72613 11.8288 8.98426 12.3758 8.43728C12.9227 7.8903 13.6646 7.58301 14.4382 7.58301C15.2117 7.58301 15.9536 7.8903 16.5005 8.43728C17.0475 8.98426 17.3548 9.72613 17.3548 10.4997C17.3548 10.8827 17.2794 11.262 17.1328 11.6158C16.9862 11.9697 16.7714 12.2912 16.5005 12.5621C16.2297 12.8329 15.9082 13.0477 15.5543 13.1943C15.2004 13.3409 14.8212 13.4163 14.4382 13.4163ZM14.4382 2.33301C12.2722 2.33301 10.195 3.19342 8.66345 4.72497C7.1319 6.25652 6.27148 8.33374 6.27148 10.4997C6.27148 16.6247 14.4382 25.6663 14.4382 25.6663C14.4382 25.6663 22.6048 16.6247 22.6048 10.4997C22.6048 8.33374 21.7444 6.25652 20.2129 4.72497C18.6813 3.19342 16.6041 2.33301 14.4382 2.33301Z" fill="#202020"/>
</svg>
