<svg width="220" height="74" viewBox="0 0 220 74" fill="none" xmlns="http://www.w3.org/2000/svg">
<path d="M152.148 16.6953C148.984 16.6953 145.7 17.3468 142.386 18.6337L141.449 18.9972L142.668 22.9628L143.691 22.5536C146.576 21.4013 149.478 20.8144 152.319 20.8144C154.973 20.8144 157.006 21.3771 158.359 22.4836C159.634 23.5228 160.279 25.3938 160.279 28.0403V28.5733H154.095C145.038 28.5733 140.443 31.944 140.443 38.5911C140.443 41.9025 141.669 44.4385 144.088 46.1346C146.374 47.7365 149.547 48.5496 153.522 48.5496C156.778 48.5496 160.156 48.0057 163.565 46.9342L164.308 46.7V28.0403C164.308 22.8659 162.199 16.6953 152.145 16.6953M160.277 32.6332V43.6201C158.359 44.1586 156.112 44.4332 153.578 44.4332C144.531 44.4332 144.531 40.0368 144.531 38.5938C144.531 37.1507 144.531 32.6332 154.267 32.6332H160.277Z" fill="#202020"/>
<path d="M90.9688 16.6953C87.8053 16.6953 84.5215 17.3468 81.207 18.631L80.2703 18.9945L81.4886 22.9601L82.5123 22.5509C85.3994 21.3986 88.3018 20.8144 91.1428 20.8144C93.7969 20.8144 95.8291 21.3771 97.1831 22.4836C98.4577 23.5228 99.1027 25.3938 99.1027 28.0403V28.5734H92.9216C83.8637 28.5734 79.2695 31.944 79.2695 38.5938C79.2695 41.9025 80.4955 44.4412 82.9142 46.1373C85.1972 47.7392 88.3735 48.5523 92.3483 48.5523C95.6039 48.5523 98.9824 48.0084 102.392 46.9369L103.134 46.7027V28.0403C103.134 22.8659 101.025 16.6953 90.9713 16.6953M99.1027 43.6201C97.1857 44.1586 94.9385 44.4332 92.4046 44.4332C83.357 44.4332 83.357 40.0368 83.357 38.5938C83.357 37.1507 83.357 32.6332 93.0931 32.6332H99.1027V43.6201Z" fill="#202020"/>
<path d="M181.559 17.602C180.154 17.0798 178.38 16.8159 176.284 16.8159C174.833 16.8159 173.317 17.0071 171.774 17.3867C170.221 17.769 169.115 18.1297 168.388 18.4878L167.789 18.7839V48.0106H171.82V21.7023C173.32 21.1935 174.876 20.935 176.453 20.935C178.109 20.935 179.394 21.1127 180.266 21.4654L181.282 21.8746L182.521 17.9601L181.556 17.602H181.559Z" fill="#202020"/>
<path d="M212.49 16.6006L200.906 42.2251L189.188 16.6006H184.763L198.666 47.1734L197.435 49.8979C195.807 53.6697 194.387 56.2461 193.209 57.5572C192.145 58.7472 190.798 59.3233 189.094 59.3233C188.334 59.3233 187.66 59.1645 187.036 58.836L185.964 58.2734L184.699 62.2686L185.623 62.6455C186.939 63.1813 188.075 63.4424 189.094 63.4424C191.989 63.4424 194.256 62.5217 195.833 60.7071C197.292 59.0272 199.111 55.7777 201.402 50.7702L216.918 16.6006H212.49Z" fill="#202020"/>
<path d="M132.762 45.5773C135.559 42.4194 136.977 38.3757 136.977 33.5539C136.977 28.7322 135.559 24.6831 132.764 21.509C129.944 18.316 126.24 16.6953 121.754 16.6953C117.267 16.6953 113.569 18.3079 110.769 21.4848C107.986 24.64 106.576 28.6999 106.576 33.5539C106.576 38.408 107.986 42.4194 110.766 45.5747C112.189 47.19 113.845 48.4015 115.716 49.2011C115.48 49.2468 115.255 49.3007 115.043 49.3572L114.124 49.6049L114.695 53.3228L115.8 53.024C116.694 52.7817 117.899 52.6605 119.384 52.6605C123.983 52.6605 127.95 53.8397 131.175 56.1604L132.283 56.9573L133.589 53.1828L132.921 52.7036C131.009 51.3306 128.848 50.3237 126.46 49.6884C128.892 48.9372 131.001 47.5615 132.764 45.5747M121.759 46.4765C118.273 46.4765 115.575 45.3054 113.52 42.8986C111.462 40.4918 110.42 37.3473 110.42 33.5539C110.42 29.7606 111.465 26.6053 113.523 24.1797C115.58 21.7567 118.275 20.5775 121.759 20.5775C125.242 20.5775 127.983 21.7567 130.041 24.1797C132.102 26.6053 133.146 29.7606 133.146 33.5539C133.146 37.3473 132.102 40.4918 130.044 42.9013C127.986 45.3081 125.275 46.4792 121.759 46.4792" fill="#202020"/>
<path d="M42.4236 6.65088L34.8072 24.5103L27.9531 40.7062L22.6837 53.1592L17.1074 66.3475L23.2087 53.1592L28.9653 40.7062L35.598 26.3701L39.8774 36.4875L41.6645 40.7062H37.9227L32.163 53.1592L46.934 53.1659L52.5165 66.3508H69.3687L63.7861 53.1659L58.5167 40.7128L48.6767 17.4603L44.4004 7.47598L44.0494 6.65088H42.4236Z" fill="url(#paint0_linear_20_35288)"/>
<path d="M29.33 6.65479L28.2894 9.11012L14.9133 40.7068L9.64704 53.1598H9.64388L4.06445 66.348H4.06762L10.1689 53.1598L15.9255 40.7068L29.368 11.652L31.6864 6.65479H29.33Z" fill="url(#paint1_linear_20_35288)"/>
<path d="M31.5472 16.8082L21.429 40.7062L16.1627 53.1592H16.1595L10.5801 66.3475H10.5864L16.6846 53.1592L22.4443 40.7062L32.4771 19.0107L38.1926 6.65421L35.8362 6.65088L31.5472 16.8082Z" fill="url(#paint2_linear_20_35288)"/>
<path d="M144.292 54.2119V54.0619H144.142H143H142.85V54.2119V69.8389V69.9889H143H144.142H144.292V69.8389V54.2119ZM154.691 69.9828H154.841V69.8328V57.4297L164.009 70.088L164.053 70.15H164.13H164.425H164.575V70V54.2122V54.0622H164.425H163.326H163.176V54.2122V66.5365L154.003 53.9118L153.958 53.85H153.881H153.587H153.437V54V69.8328V69.9828H153.587H154.691ZM182 55.5902H182.15V55.4402V54.2119V54.0619H182H172.304H172.154V54.2119V55.4402V55.5902H172.304H176.442V69.8325V69.9825H176.592H177.755H177.905V69.8325V55.5902H182Z" fill="#436496" stroke="#436496" stroke-width="0.3"/>
<defs>
<linearGradient id="paint0_linear_20_35288" x1="24.1017" y1="-43.3535" x2="76.0454" y2="94.2183" gradientUnits="userSpaceOnUse">
<stop offset="0.611841" stop-color="#436496"/>
<stop offset="1" stop-color="#E8F3FD"/>
</linearGradient>
<linearGradient id="paint1_linear_20_35288" x1="28.5286" y1="-45.2036" x2="57.1702" y2="72.0365" gradientUnits="userSpaceOnUse">
<stop offset="0.611841" stop-color="#436496"/>
<stop offset="1" stop-color="#E8F3FD"/>
</linearGradient>
<linearGradient id="paint2_linear_20_35288" x1="35.0359" y1="-45.2104" x2="63.6892" y2="72.031" gradientUnits="userSpaceOnUse">
<stop offset="0.611841" stop-color="#436496"/>
<stop offset="1" stop-color="#E8F3FD"/>
</linearGradient>
</defs>
</svg>
