<svg width="50" height="49" viewBox="0 0 50 49" fill="none" xmlns="http://www.w3.org/2000/svg">
<path d="M39.2425 31.3185L34.3196 27.7258C34.0508 27.5296 33.6869 27.6119 33.509 27.9121C33.3315 28.2118 33.4068 28.6151 33.6767 28.8118L37.7462 31.7816L20.6807 38.5121L8.50881 29.569L15.4671 26.7568C15.7706 26.6343 15.9278 26.2613 15.8166 25.9239C15.7062 25.5869 15.37 25.4123 15.0669 25.5357L7.00824 28.7927C6.71414 28.9114 6.55967 29.2653 6.65134 29.5941V33.4553C6.65134 33.5311 6.66538 33.6026 6.68683 33.6702C6.69073 33.8759 6.78201 34.076 6.94817 34.1982L20.2781 43.9921C20.3776 44.0648 20.4899 44.0999 20.6007 44.0999C20.7166 44.0999 20.8285 44.0575 20.926 43.9851L39.2874 36.7439C39.5035 36.6586 39.6443 36.4459 39.67 36.2089C39.7024 36.1284 39.7211 36.0396 39.7211 35.9456V31.9566C39.7207 31.6382 39.5144 31.3744 39.2425 31.3185ZM7.82152 30.6224L20.016 39.582V42.2412L7.82152 33.2816V30.6224ZM21.1862 39.6916L38.5509 32.8432V35.6549L21.1862 42.5033V39.6916Z" fill="#202020" stroke="#202020" stroke-width="0.5"/>
<path d="M43.3755 17.7942C43.3755 17.4762 43.1695 17.2124 42.8977 17.1566L29.7003 7.45495C29.6898 7.44716 29.6781 7.44282 29.6676 7.43589C29.6496 7.42463 29.6321 7.41337 29.613 7.40427C29.595 7.39561 29.5771 7.38868 29.5591 7.38218C29.5416 7.37568 29.5244 7.36962 29.5065 7.36529C29.487 7.36052 29.4675 7.35749 29.4476 7.35489C29.43 7.35273 29.4125 7.35013 29.3945 7.34969C29.3742 7.34926 29.3544 7.35056 29.3341 7.35229C29.3165 7.35359 29.299 7.35532 29.281 7.35836C29.2603 7.36226 29.2401 7.36832 29.2198 7.37482C29.2077 7.37872 29.1956 7.38001 29.1835 7.38435L10.6681 14.6221C10.3689 14.7391 10.2105 15.0986 10.3061 15.4317V19.2877C10.3061 19.3614 10.3194 19.4311 10.34 19.497C10.3428 19.7044 10.4344 19.9072 10.6018 20.0302L23.9294 29.8275C24.0288 29.9003 24.1408 29.9354 24.252 29.9354C24.3682 29.9354 24.4805 29.8929 24.5781 29.8197L42.9398 22.5824C43.1551 22.4975 43.2951 22.2865 43.3221 22.0509C43.3556 21.969 43.3755 21.8785 43.3755 21.7828V17.7942ZM29.2974 8.7172L41.4045 17.6175L24.3319 24.3462L12.1757 15.41L29.2974 8.7172ZM11.4763 16.4544L23.6673 25.4162V28.0758L11.4763 19.114V16.4544ZM24.8374 25.5258L42.2053 18.6804V21.4921L24.8374 28.3379V25.5258Z" fill="#202020" stroke="#202020" stroke-width="0.5"/>
</svg>
