<svg width="50" height="49" viewBox="0 0 50 49" fill="none" xmlns="http://www.w3.org/2000/svg">
<path fill-rule="evenodd" clip-rule="evenodd" d="M37.0462 28.4711H42.7425C42.9103 28.4711 43.0713 28.5401 43.19 28.6628C43.3087 28.7856 43.3754 28.9522 43.3754 29.1258V31.7448C43.3754 31.9184 43.3087 32.085 43.19 32.2078C43.0713 32.3305 42.9103 32.3995 42.7425 32.3995H42.1095V42.2206C42.1095 42.3943 42.0429 42.5608 41.9242 42.6836C41.8055 42.8064 41.6445 42.8754 41.4766 42.8754H13.628C13.4601 42.8754 13.2991 42.8064 13.1804 42.6836C13.0617 42.5608 12.9951 42.3943 12.9951 42.2206V40.2322C12.5548 40.197 12.1251 40.075 11.7292 39.8727V42.2206C11.7292 42.3943 11.6625 42.5608 11.5438 42.6836C11.4251 42.8064 11.2642 42.8754 11.0963 42.8754C10.9284 42.8754 10.7674 42.8064 10.6488 42.6836C10.5301 42.5608 10.4634 42.3943 10.4634 42.2206V39.8727C9.98643 40.1217 9.46022 40.253 8.926 40.2564C8.09671 40.2582 7.29348 39.9568 6.65804 39.4056C6.02261 38.8544 5.59582 38.0887 5.45298 37.2436C5.31014 36.3986 5.46045 35.5285 5.87736 34.7869C6.29428 34.0453 6.95102 33.4799 7.73167 33.1905C7.62537 32.8438 7.57094 32.4823 7.57028 32.1186C7.56923 31.4641 7.73876 30.8213 8.06103 30.2579C8.3833 29.6946 8.84639 29.2315 9.40158 28.9175C9.95676 28.6034 10.5835 28.45 11.2159 28.4733C11.8483 28.4965 12.4629 28.6957 12.9951 29.0499V5.55513C12.9951 5.38148 13.0617 5.21495 13.1804 5.09216C13.2991 4.96937 13.4601 4.90039 13.628 4.90039H36.4132C36.5811 4.90039 36.7421 4.96937 36.8608 5.09216C36.9795 5.21495 37.0462 5.38148 37.0462 5.55513V28.4711ZM10.6488 36.5197C10.7674 36.397 10.9284 36.328 11.0963 36.328C11.2642 36.328 11.4251 36.397 11.5438 36.5197C11.6625 36.6425 11.7292 36.8091 11.7292 36.9827V38.2922C12.1404 38.7102 12.6933 38.9452 13.2698 38.9469C13.8486 38.9501 14.4065 38.7227 14.8275 38.3118C15.2486 37.9008 15.5006 37.338 15.5312 36.74C15.5618 36.142 15.3687 35.5548 14.992 35.1001C14.6152 34.6455 14.0837 34.3583 13.5077 34.2983C13.4022 34.2866 13.3012 34.2476 13.214 34.1849C13.1268 34.1222 13.0563 34.0379 13.0089 33.9396C12.9615 33.8413 12.9387 33.7323 12.9427 33.6226C12.9467 33.5128 12.9773 33.4059 13.0318 33.3116C13.2446 32.9525 13.3581 32.5398 13.3596 32.1186C13.3596 31.4985 13.1215 30.9038 12.6976 30.4654C12.2738 30.0269 11.6989 29.7806 11.0995 29.7806C10.5 29.7806 9.92514 30.0269 9.50128 30.4654C9.07742 30.9038 8.83929 31.4985 8.83929 32.1186C8.84086 32.5398 8.95427 32.9525 9.16715 33.3116C9.22158 33.4059 9.2522 33.5128 9.25621 33.6226C9.26021 33.7323 9.23747 33.8413 9.19006 33.9396C9.14266 34.0379 9.07212 34.1222 8.98495 34.1849C8.89777 34.2476 8.79675 34.2866 8.69119 34.2983C8.11553 34.3584 7.58429 34.6453 7.20759 35.0995C6.83088 35.5538 6.63759 36.1406 6.66778 36.7383C6.69797 37.336 6.94933 37.8988 7.36975 38.31C7.79018 38.7212 8.34743 38.9493 8.926 38.9469C9.50137 38.9443 10.053 38.7094 10.4634 38.2922V36.9827C10.4634 36.8091 10.5301 36.6425 10.6488 36.5197ZM21.856 41.5659H28.1852V35.0185H21.856V41.5659ZM29.4511 41.5659H35.7803V6.20987H14.2609V30.5204C14.4981 31.0175 14.6218 31.5643 14.6223 32.1186C14.6216 32.4823 14.5672 32.8438 14.4609 33.1905C15.1602 33.4493 15.7623 33.9306 16.1809 34.5654C16.5994 35.2001 16.8129 35.9557 16.7907 36.7237C16.7685 37.4917 16.5117 38.2327 16.0573 38.8404C15.6028 39.4481 14.9739 39.8913 14.2609 40.1065V41.5659H20.5901V34.3638C20.5901 34.1901 20.6568 34.0236 20.7755 33.9008C20.8942 33.778 21.0552 33.709 21.2231 33.709H28.8181C28.986 33.709 29.147 33.778 29.2657 33.9008C29.3844 34.0236 29.4511 34.1901 29.4511 34.3638V37.9648V41.5659ZM37.0462 41.5659H40.8437V32.3995H37.0462V41.5659ZM37.0462 31.09H42.1095V29.7806H37.0462V31.09ZM18.6928 12.7574H16.1611C15.9932 12.7574 15.8322 12.6885 15.7136 12.5657C15.5949 12.4429 15.5282 12.2764 15.5282 12.1027V8.17426C15.5282 8.00061 15.5949 7.83407 15.7136 7.71129C15.8322 7.5885 15.9932 7.51952 16.1611 7.51952H18.6928C18.8607 7.51952 19.0216 7.5885 19.1403 7.71129C19.259 7.83407 19.3257 8.00061 19.3257 8.17426V12.1027C19.3257 12.2764 19.259 12.4429 19.1403 12.5657C19.0216 12.6885 18.8607 12.7574 18.6928 12.7574ZM18.0599 8.829H16.794V11.448H18.0599V8.829ZM21.2214 12.7574H23.7531C23.921 12.7574 24.0819 12.6885 24.2006 12.5657C24.3193 12.4429 24.386 12.2764 24.386 12.1027V8.17426C24.386 8.00061 24.3193 7.83407 24.2006 7.71129C24.0819 7.5885 23.921 7.51952 23.7531 7.51952H21.2214C21.0535 7.51952 20.8926 7.5885 20.7739 7.71129C20.6552 7.83407 20.5885 8.00061 20.5885 8.17426V12.1027C20.5885 12.2764 20.6552 12.4429 20.7739 12.5657C20.8926 12.6885 21.0535 12.7574 21.2214 12.7574ZM21.8543 8.829H23.1202V11.448H21.8543V8.829ZM26.2841 12.7574H28.8158C28.9837 12.7574 29.1446 12.6885 29.2633 12.5657C29.382 12.4429 29.4487 12.2764 29.4487 12.1027V8.17426C29.4487 8.00061 29.382 7.83407 29.2633 7.71129C29.1446 7.5885 28.9837 7.51952 28.8158 7.51952H26.2841C26.1162 7.51952 25.9552 7.5885 25.8366 7.71129C25.7179 7.83407 25.6512 8.00061 25.6512 8.17426V12.1027C25.6512 12.2764 25.7179 12.4429 25.8366 12.5657C25.9552 12.6885 26.1162 12.7574 26.2841 12.7574ZM26.917 8.829H28.1829V11.448H26.917V8.829ZM33.8809 12.7574H31.3492C31.1813 12.7574 31.0204 12.6885 30.9017 12.5657C30.783 12.4429 30.7163 12.2764 30.7163 12.1027V8.17426C30.7163 8.00061 30.783 7.83407 30.9017 7.71129C31.0204 7.5885 31.1813 7.51952 31.3492 7.51952H33.8809C34.0488 7.51952 34.2098 7.5885 34.3284 7.71129C34.4471 7.83407 34.5138 8.00061 34.5138 8.17426V12.1027C34.5138 12.2764 34.4471 12.4429 34.3284 12.5657C34.2098 12.6885 34.0488 12.7574 33.8809 12.7574ZM33.248 8.829H31.9821V11.448H33.248V8.829ZM21.2214 19.3047H23.7531C23.921 19.3047 24.0819 19.2358 24.2006 19.113C24.3193 18.9902 24.386 18.8236 24.386 18.65V14.7215C24.386 14.5479 24.3193 14.3814 24.2006 14.2586C24.0819 14.1358 23.921 14.0668 23.7531 14.0668H21.2214C21.0535 14.0668 20.8926 14.1358 20.7739 14.2586C20.6552 14.3814 20.5885 14.5479 20.5885 14.7215V18.65C20.5885 18.8236 20.6552 18.9902 20.7739 19.113C20.8926 19.2358 21.0535 19.3047 21.2214 19.3047ZM21.8543 15.3763H23.1202V17.9953H21.8543V15.3763ZM28.8158 19.3047H26.2841C26.1162 19.3047 25.9552 19.2358 25.8366 19.113C25.7179 18.9902 25.6512 18.8236 25.6512 18.65V14.7215C25.6512 14.5479 25.7179 14.3814 25.8366 14.2586C25.9552 14.1358 26.1162 14.0668 26.2841 14.0668H28.8158C28.9837 14.0668 29.1446 14.1358 29.2633 14.2586C29.382 14.3814 29.4487 14.5479 29.4487 14.7215V18.65C29.4487 18.8236 29.382 18.9902 29.2633 19.113C29.1446 19.2358 28.9837 19.3047 28.8158 19.3047ZM28.1829 15.3763H26.917V17.9953H28.1829V15.3763ZM31.3492 19.3047H33.8809C34.0488 19.3047 34.2098 19.2358 34.3284 19.113C34.4471 18.9902 34.5138 18.8237 34.5138 18.65V14.7216C34.5138 14.5479 34.4471 14.3814 34.3284 14.2586C34.2098 14.1358 34.0488 14.0668 33.8809 14.0668H31.3492C31.1813 14.0668 31.0204 14.1358 30.9017 14.2586C30.783 14.3814 30.7163 14.5479 30.7163 14.7216V18.65C30.7163 18.8237 30.783 18.9902 30.9017 19.113C31.0204 19.2358 31.1813 19.3047 31.3492 19.3047ZM31.9821 15.3763H33.248V17.9953H31.9821V15.3763ZM16.1611 19.3047H18.6928C18.8607 19.3047 19.0216 19.2358 19.1403 19.113C19.259 18.9902 19.3257 18.8236 19.3257 18.65V14.7215C19.3257 14.5479 19.259 14.3814 19.1403 14.2586C19.0216 14.1358 18.8607 14.0668 18.6928 14.0668H16.1611C15.9932 14.0668 15.8322 14.1358 15.7136 14.2586C15.5949 14.3814 15.5282 14.5479 15.5282 14.7215V18.65C15.5282 18.8236 15.5949 18.9902 15.7136 19.113C15.8322 19.2358 15.9932 19.3047 16.1611 19.3047ZM16.794 15.3763H18.0599V17.9953H16.794V15.3763ZM23.7531 25.8523H21.2214C21.0535 25.8523 20.8926 25.7833 20.7739 25.6606C20.6552 25.5378 20.5885 25.3712 20.5885 25.1976V21.2691C20.5885 21.0955 20.6552 20.929 20.7739 20.8062C20.8926 20.6834 21.0535 20.6144 21.2214 20.6144H23.7531C23.921 20.6144 24.0819 20.6834 24.2006 20.8062C24.3193 20.929 24.386 21.0955 24.386 21.2691V25.1976C24.386 25.3712 24.3193 25.5378 24.2006 25.6606C24.0819 25.7833 23.921 25.8523 23.7531 25.8523ZM23.1202 21.9239H21.8543V24.5428H23.1202V21.9239ZM16.1611 25.8523H18.6928C18.8607 25.8523 19.0216 25.7833 19.1403 25.6606C19.259 25.5378 19.3257 25.3712 19.3257 25.1976V21.2691C19.3257 21.0955 19.259 20.929 19.1403 20.8062C19.0216 20.6834 18.8607 20.6144 18.6928 20.6144H16.1611C15.9932 20.6144 15.8322 20.6834 15.7136 20.8062C15.5949 20.929 15.5282 21.0955 15.5282 21.2691V25.1976C15.5282 25.3712 15.5949 25.5378 15.7136 25.6606C15.8322 25.7833 15.9932 25.8523 16.1611 25.8523ZM16.794 21.9239H18.0599V24.5428H16.794V21.9239ZM28.8158 25.8523H26.2841C26.1162 25.8523 25.9552 25.7833 25.8366 25.6606C25.7179 25.5378 25.6512 25.3712 25.6512 25.1976V21.2691C25.6512 21.0955 25.7179 20.929 25.8366 20.8062C25.9552 20.6834 26.1162 20.6144 26.2841 20.6144H28.8158C28.9837 20.6144 29.1446 20.6834 29.2633 20.8062C29.382 20.929 29.4487 21.0955 29.4487 21.2691V25.1976C29.4487 25.3712 29.382 25.5378 29.2633 25.6606C29.1446 25.7833 28.9837 25.8523 28.8158 25.8523ZM28.1829 21.9239H26.917V24.5428H28.1829V21.9239ZM31.3492 25.8523H33.8809C34.0488 25.8523 34.2098 25.7833 34.3284 25.6605C34.4471 25.5377 34.5138 25.3712 34.5138 25.1976V21.2691C34.5138 21.0955 34.4471 20.9289 34.3284 20.8061C34.2098 20.6834 34.0488 20.6144 33.8809 20.6144H31.3492C31.1813 20.6144 31.0204 20.6834 30.9017 20.8061C30.783 20.9289 30.7163 21.0955 30.7163 21.2691V25.1976C30.7163 25.3712 30.783 25.5377 30.9017 25.6605C31.0204 25.7833 31.1813 25.8523 31.3492 25.8523ZM31.9821 21.9239H33.248V24.5428H31.9821V21.9239ZM23.7531 32.3996H21.2214C21.0535 32.3996 20.8926 32.3306 20.7739 32.2078C20.6552 32.0851 20.5885 31.9185 20.5885 31.7449V27.8164C20.5885 27.6428 20.6552 27.4762 20.7739 27.3535C20.8926 27.2307 21.0535 27.1617 21.2214 27.1617H23.7531C23.921 27.1617 24.0819 27.2307 24.2006 27.3535C24.3193 27.4762 24.386 27.6428 24.386 27.8164V31.7449C24.386 31.9185 24.3193 32.0851 24.2006 32.2078C24.0819 32.3306 23.921 32.3996 23.7531 32.3996ZM23.1202 28.4712H21.8543V31.0901H23.1202V28.4712ZM16.1611 32.3996H18.6928C18.8607 32.3996 19.0216 32.3306 19.1403 32.2078C19.259 32.0851 19.3257 31.9185 19.3257 31.7449V27.8164C19.3257 27.6428 19.259 27.4762 19.1403 27.3535C19.0216 27.2307 18.8607 27.1617 18.6928 27.1617H16.1611C15.9932 27.1617 15.8322 27.2307 15.7136 27.3535C15.5949 27.4762 15.5282 27.6428 15.5282 27.8164V31.7449C15.5282 31.9185 15.5949 32.0851 15.7136 32.2078C15.8322 32.3306 15.9932 32.3996 16.1611 32.3996ZM16.794 28.4712H18.0599V31.0901H16.794V28.4712ZM28.8158 32.3996H26.2841C26.1162 32.3996 25.9552 32.3306 25.8366 32.2078C25.7179 32.0851 25.6512 31.9185 25.6512 31.7449V27.8164C25.6512 27.6428 25.7179 27.4762 25.8366 27.3535C25.9552 27.2307 26.1162 27.1617 26.2841 27.1617H28.8158C28.9837 27.1617 29.1446 27.2307 29.2633 27.3535C29.382 27.4762 29.4487 27.6428 29.4487 27.8164V31.7449C29.4487 31.9185 29.382 32.0851 29.2633 32.2078C29.1446 32.3306 28.9837 32.3996 28.8158 32.3996ZM28.1829 28.4712H26.917V31.0901H28.1829V28.4712ZM31.3492 32.3996H33.8809C34.0488 32.3996 34.2098 32.3306 34.3284 32.2078C34.4471 32.085 34.5138 31.9185 34.5138 31.7449V27.8164C34.5138 27.6428 34.4471 27.4762 34.3284 27.3534C34.2098 27.2306 34.0488 27.1617 33.8809 27.1617H31.3492C31.1813 27.1617 31.0204 27.2306 30.9017 27.3534C30.783 27.4762 30.7163 27.6428 30.7163 27.8164V31.7449C30.7163 31.9185 30.783 32.085 30.9017 32.2078C31.0204 32.3306 31.1813 32.3996 31.3492 32.3996ZM31.9821 28.4712H33.248V31.0901H31.9821V28.4712Z" fill="#0B448E"/>
</svg>
