<svg width="45" height="41" viewBox="0 0 45 41" fill="none" xmlns="http://www.w3.org/2000/svg">
<path d="M42.7255 18.101H30.5578V16.6452C30.5578 15.3628 29.5145 14.3194 28.2321 14.3194C26.9496 14.3194 25.9063 15.3628 25.9063 16.6452V18.101H13.7387C12.8625 18.101 12.1395 18.7693 12.0526 19.6229C12.0468 19.6798 12.0438 19.7376 12.0438 19.796V30.8678C12.0438 31.8024 12.8042 32.5628 13.7387 32.5628H15.7908V37.1789H6.94645V14.7975L21.7435 4.95448L36.5405 14.7976V16.5852C36.5405 16.9327 36.8222 17.2143 37.1696 17.2143C37.517 17.2143 37.7987 16.9327 37.7987 16.5852V15.6345L39.7053 16.9028C40.4267 17.3827 41.3588 17.3827 42.0803 16.9028C42.6792 16.5044 43.0368 15.837 43.0368 15.1176C43.0368 14.3983 42.6792 13.7309 42.0803 13.3326L22.3528 0.209564C21.9826 -0.0366516 21.5044 -0.0366516 21.1344 0.209564L9.68797 7.82388C9.39873 8.01625 9.32015 8.40674 9.51261 8.69607C9.70506 8.98531 10.0956 9.06389 10.3848 8.87135L21.7435 1.31535L41.3835 14.3801C41.6346 14.5472 41.7787 14.816 41.7787 15.1177C41.7787 15.4194 41.6346 15.6882 41.3835 15.8553C41.0854 16.0536 40.7003 16.0536 40.4022 15.8553L22.3528 3.84861C21.9826 3.60248 21.5044 3.60231 21.1344 3.84861L3.0848 15.8553C2.7868 16.0534 2.40163 16.0536 2.10354 15.8552C1.85235 15.6882 1.70833 15.4194 1.70833 15.1177C1.70833 14.816 1.85235 14.5472 2.10354 14.3801L7.13049 11.0361C7.41973 10.8437 7.49831 10.4532 7.30585 10.1639C7.1134 9.87476 6.7229 9.79609 6.43366 9.98864L1.40672 13.3325C0.807797 13.7309 0.450195 14.3982 0.450195 15.1177C0.450195 15.8372 0.807797 16.5045 1.40672 16.9028C1.7675 17.1428 2.18075 17.2628 2.59426 17.2628C3.00759 17.2627 3.4211 17.1427 3.78171 16.9028L5.68832 15.6345V37.1789H3.27743C2.23082 37.1789 1.37941 38.0304 1.37941 39.0769C1.37941 40.1235 2.23082 40.9749 3.27743 40.9749H40.2096C41.2562 40.9749 42.1077 40.1234 42.1077 39.0769C42.1077 38.0303 41.2562 37.1789 40.2096 37.1789H37.7987V34.0784C37.7987 33.7309 37.5171 33.4493 37.1697 33.4493C36.8223 33.4493 36.5406 33.7309 36.5406 34.0784V37.1789H30.5579V32.5628H42.7255C43.6601 32.5628 44.4204 31.8024 44.4204 30.8678V19.796C44.4204 18.8613 43.66 18.101 42.7255 18.101ZM27.1644 16.6452C27.1644 16.0565 27.6434 15.5776 28.2321 15.5776C28.8208 15.5776 29.2997 16.0565 29.2997 16.6452V18.101H27.1644V16.6452ZM25.9063 39.7168H3.27743C2.92463 39.7168 2.63754 39.4298 2.63754 39.0769C2.63754 38.724 2.92455 38.437 3.27743 38.437H25.9063V39.7168ZM25.9063 37.1789H17.0489V32.5628H25.9063V37.1789ZM29.2997 39.7168H27.1644V32.5627H29.2997V39.7168ZM40.2096 38.437C40.5624 38.437 40.8495 38.724 40.8495 39.0769C40.8495 39.4298 40.5625 39.7168 40.2096 39.7168H30.5578V38.437H40.2096ZM42.7255 31.3046H13.7387C13.4978 31.3046 13.3019 31.1087 13.3019 30.8678V19.796C13.3019 19.5552 13.4978 19.3592 13.7387 19.3592L42.7255 19.3591C42.9664 19.3591 43.1623 19.555 43.1623 19.796V30.8678C43.1623 31.1087 42.9664 31.3046 42.7255 31.3046Z" fill="#202020"/>
<path d="M21.7452 7.72461C19.56 7.72461 17.7822 9.5024 17.7822 11.6876C17.7822 13.8728 19.56 15.6507 21.7452 15.6507C23.9304 15.6507 25.7082 13.8729 25.7082 11.6876C25.7082 9.50248 23.9304 7.72461 21.7452 7.72461ZM21.1161 14.3178C20.1284 14.0816 19.3498 13.3022 19.1144 12.314H21.1161V14.3178ZM21.1161 11.0559H19.1157C19.3525 10.0701 20.1302 9.29328 21.1161 9.05745V11.0559ZM22.3743 9.05745C23.3603 9.29328 24.138 10.0702 24.3747 11.0559H22.3743V9.05745ZM22.3743 14.3178V12.314H24.376C24.1406 13.3022 23.3621 14.0815 22.3743 14.3178Z" fill="#202020"/>
<path d="M22.4262 27.9411L21.232 25.7262C21.9156 25.5165 22.426 24.9513 22.426 23.903C22.426 22.4537 21.4598 21.998 20.2657 21.998H18.461C18.2331 21.998 18.0781 22.1713 18.0781 22.3626V28.2875C18.0781 28.5336 18.3789 28.6612 18.6706 28.6612C18.9714 28.6612 19.2631 28.5336 19.2631 28.2875V25.9084H20.0288L21.3232 28.4242C21.4144 28.6065 21.5693 28.7068 21.7334 28.7068C22.0798 28.7068 22.4717 28.3878 22.4717 28.0871C22.4717 28.0506 22.4626 27.9867 22.4262 27.9411ZM20.2657 24.9787H19.2631V23.0372H20.2657C20.8583 23.0372 21.2411 23.2924 21.2411 24.0125C21.2411 24.7327 20.8582 24.9787 20.2657 24.9787Z" fill="#202020"/>
<path d="M27.2207 27.6221H24.641V25.7899H26.0265C26.2817 25.7899 26.4003 25.5438 26.4003 25.3341C26.4003 25.0881 26.2634 24.8601 26.0265 24.8601H24.641V23.037H27.2207V23.0372C27.4576 23.0372 27.5944 22.7911 27.5944 22.5084C27.5944 22.2624 27.4759 21.998 27.2207 21.998H23.9756C23.7113 21.998 23.4561 22.1257 23.4561 22.3718V28.2875C23.4561 28.5336 23.7113 28.6612 23.9756 28.6612H27.2207C27.4759 28.6612 27.5944 28.3968 27.5944 28.1508C27.5944 27.8682 27.4576 27.6221 27.2207 27.6221Z" fill="#202020"/>
<path d="M32.2981 21.998C31.9974 21.998 31.7057 22.1074 31.7057 22.3626V26.0269L29.9463 22.627C29.6638 22.0892 29.4906 21.998 29.0622 21.998C28.7615 21.998 28.4697 22.1166 28.4697 22.3718V28.2875C28.4697 28.5336 28.7614 28.6612 29.0622 28.6612C29.3539 28.6612 29.6547 28.5336 29.6547 28.2875V24.6232L31.6145 28.2875C31.7696 28.57 32.0156 28.6612 32.2981 28.6612C32.5898 28.6612 32.8906 28.5336 32.8906 28.2875V22.3627C32.8906 22.1075 32.5899 21.998 32.2981 21.998Z" fill="#202020"/>
<path d="M37.9551 21.998H34.0993C33.8441 21.998 33.7256 22.2716 33.7256 22.5267C33.7256 22.8184 33.8624 23.0646 34.0993 23.0646H35.4392V28.2876C35.4392 28.5337 35.7309 28.6613 36.0318 28.6613C36.3234 28.6613 36.6243 28.5337 36.6243 28.2876V23.0646H37.9551C38.192 23.0646 38.3287 22.8093 38.3287 22.5267C38.3287 22.2716 38.2103 21.998 37.9551 21.998Z" fill="#202020"/>
</svg>
