<svg width="63" height="63" viewBox="0 0 63 63" fill="none" xmlns="http://www.w3.org/2000/svg">
<path d="M51.7255 29.101H39.5578V27.6452C39.5578 26.3628 38.5145 25.3194 37.2321 25.3194C35.9496 25.3194 34.9063 26.3628 34.9063 27.6452V29.101H22.7387C21.8625 29.101 21.1395 29.7693 21.0526 30.6229C21.0468 30.6798 21.0438 30.7376 21.0438 30.796V41.8678C21.0438 42.8024 21.8042 43.5628 22.7387 43.5628H24.7908V48.1789H15.9464V25.7975L30.7435 15.9545L45.5405 25.7976V27.5852C45.5405 27.9327 45.8222 28.2143 46.1696 28.2143C46.517 28.2143 46.7987 27.9327 46.7987 27.5852V26.6345L48.7053 27.9028C49.4267 28.3827 50.3588 28.3827 51.0803 27.9028C51.6792 27.5044 52.0368 26.837 52.0368 26.1176C52.0368 25.3983 51.6792 24.7309 51.0803 24.3326L31.3528 11.2096C30.9826 10.9633 30.5044 10.9633 30.1344 11.2096L18.688 18.8239C18.3987 19.0162 18.3202 19.4067 18.5126 19.6961C18.7051 19.9853 19.0956 20.0639 19.3848 19.8713L30.7435 12.3153L50.3835 25.3801C50.6346 25.5472 50.7787 25.816 50.7787 26.1177C50.7787 26.4194 50.6346 26.6882 50.3835 26.8553C50.0854 27.0536 49.7003 27.0536 49.4022 26.8553L31.3528 14.8486C30.9826 14.6025 30.5044 14.6023 30.1344 14.8486L12.0848 26.8553C11.7868 27.0534 11.4016 27.0536 11.1035 26.8552C10.8523 26.6882 10.7083 26.4194 10.7083 26.1177C10.7083 25.816 10.8523 25.5472 11.1035 25.3801L16.1305 22.0361C16.4197 21.8437 16.4983 21.4532 16.3059 21.1639C16.1134 20.8748 15.7229 20.7961 15.4337 20.9886L10.4067 24.3325C9.8078 24.7309 9.4502 25.3982 9.4502 26.1177C9.4502 26.8372 9.8078 27.5045 10.4067 27.9028C10.7675 28.1428 11.1807 28.2628 11.5943 28.2628C12.0076 28.2627 12.4211 28.1427 12.7817 27.9028L14.6883 26.6345V48.1789H12.2774C11.2308 48.1789 10.3794 49.0304 10.3794 50.0769C10.3794 51.1235 11.2308 51.9749 12.2774 51.9749H49.2096C50.2562 51.9749 51.1077 51.1234 51.1077 50.0769C51.1077 49.0303 50.2562 48.1789 49.2096 48.1789H46.7987V45.0784C46.7987 44.7309 46.5171 44.4493 46.1697 44.4493C45.8223 44.4493 45.5406 44.7309 45.5406 45.0784V48.1789H39.5579V43.5628H51.7255C52.6601 43.5628 53.4204 42.8024 53.4204 41.8678V30.796C53.4204 29.8613 52.66 29.101 51.7255 29.101ZM36.1644 27.6452C36.1644 27.0565 36.6434 26.5776 37.2321 26.5776C37.8208 26.5776 38.2997 27.0565 38.2997 27.6452V29.101H36.1644V27.6452ZM34.9063 50.7168H12.2774C11.9246 50.7168 11.6375 50.4298 11.6375 50.0769C11.6375 49.724 11.9245 49.437 12.2774 49.437H34.9063V50.7168ZM34.9063 48.1789H26.0489V43.5628H34.9063V48.1789ZM38.2997 50.7168H36.1644V43.5627H38.2997V50.7168ZM49.2096 49.437C49.5624 49.437 49.8495 49.724 49.8495 50.0769C49.8495 50.4298 49.5625 50.7168 49.2096 50.7168H39.5578V49.437H49.2096ZM51.7255 42.3046H22.7387C22.4978 42.3046 22.3019 42.1087 22.3019 41.8678V30.796C22.3019 30.5552 22.4978 30.3592 22.7387 30.3592L51.7255 30.3591C51.9664 30.3591 52.1623 30.555 52.1623 30.796V41.8678C52.1623 42.1087 51.9664 42.3046 51.7255 42.3046Z" fill="#0B448E"/>
<path d="M30.7452 18.7246C28.56 18.7246 26.7822 20.5024 26.7822 22.6876C26.7822 24.8728 28.56 26.6507 30.7452 26.6507C32.9304 26.6507 34.7082 24.8729 34.7082 22.6876C34.7082 20.5025 32.9304 18.7246 30.7452 18.7246ZM30.1161 25.3178C29.1284 25.0816 28.3498 24.3022 28.1144 23.314H30.1161V25.3178ZM30.1161 22.0559H28.1157C28.3525 21.0701 29.1302 20.2933 30.1161 20.0575V22.0559ZM31.3743 20.0575C32.3603 20.2933 33.138 21.0702 33.3747 22.0559H31.3743V20.0575ZM31.3743 25.3178V23.314H33.376C33.1406 24.3022 32.3621 25.0815 31.3743 25.3178Z" fill="#0B448E"/>
<path d="M31.4262 38.9411L30.232 36.7262C30.9156 36.5165 31.426 35.9513 31.426 34.903C31.426 33.4537 30.4598 32.998 29.2657 32.998H27.461C27.2331 32.998 27.0781 33.1713 27.0781 33.3626V39.2875C27.0781 39.5336 27.3789 39.6612 27.6706 39.6612C27.9714 39.6612 28.2631 39.5336 28.2631 39.2875V36.9084H29.0288L30.3232 39.4242C30.4144 39.6065 30.5693 39.7068 30.7334 39.7068C31.0798 39.7068 31.4717 39.3878 31.4717 39.0871C31.4717 39.0506 31.4626 38.9867 31.4262 38.9411ZM29.2657 35.9787H28.2631V34.0372H29.2657C29.8583 34.0372 30.2411 34.2924 30.2411 35.0125C30.2411 35.7327 29.8582 35.9787 29.2657 35.9787Z" fill="#0B448E"/>
<path d="M36.2207 38.6221H33.641V36.7899H35.0265C35.2817 36.7899 35.4003 36.5438 35.4003 36.3341C35.4003 36.0881 35.2634 35.8601 35.0265 35.8601H33.641V34.037H36.2207V34.0372C36.4576 34.0372 36.5944 33.7911 36.5944 33.5084C36.5944 33.2624 36.4759 32.998 36.2207 32.998H32.9756C32.7113 32.998 32.4561 33.1257 32.4561 33.3718V39.2875C32.4561 39.5336 32.7113 39.6612 32.9756 39.6612H36.2207C36.4759 39.6612 36.5944 39.3968 36.5944 39.1508C36.5944 38.8682 36.4576 38.6221 36.2207 38.6221Z" fill="#0B448E"/>
<path d="M41.2981 32.998C40.9974 32.998 40.7057 33.1074 40.7057 33.3626V37.0269L38.9463 33.627C38.6638 33.0892 38.4906 32.998 38.0622 32.998C37.7615 32.998 37.4697 33.1166 37.4697 33.3718V39.2875C37.4697 39.5336 37.7614 39.6612 38.0622 39.6612C38.3539 39.6612 38.6547 39.5336 38.6547 39.2875V35.6232L40.6145 39.2875C40.7696 39.57 41.0156 39.6612 41.2981 39.6612C41.5898 39.6612 41.8906 39.5336 41.8906 39.2875V33.3627C41.8906 33.1075 41.5899 32.998 41.2981 32.998Z" fill="#0B448E"/>
<path d="M46.9551 32.998H43.0993C42.8441 32.998 42.7256 33.2716 42.7256 33.5267C42.7256 33.8184 42.8624 34.0646 43.0993 34.0646H44.4392V39.2876C44.4392 39.5337 44.7309 39.6613 45.0318 39.6613C45.3234 39.6613 45.6243 39.5337 45.6243 39.2876V34.0646H46.9551C47.192 34.0646 47.3287 33.8093 47.3287 33.5267C47.3287 33.2716 47.2103 32.998 46.9551 32.998Z" fill="#0B448E"/>
</svg>
