<svg width="63" height="63" viewBox="0 0 63 63" fill="none" xmlns="http://www.w3.org/2000/svg">
<path d="M51.7245 29.101H39.5569V27.6452C39.5569 26.3628 38.5135 25.3194 37.2311 25.3194C35.9486 25.3194 34.9053 26.3628 34.9053 27.6452V29.101H22.7377C21.8615 29.101 21.1385 29.7693 21.0516 30.6229C21.0458 30.6798 21.0428 30.7376 21.0428 30.796V41.8678C21.0428 42.8024 21.8032 43.5628 22.7377 43.5628H24.7898V48.1789H15.9455V25.7975L30.7426 15.9545L45.5396 25.7976V27.5852C45.5396 27.9327 45.8212 28.2143 46.1686 28.2143C46.516 28.2143 46.7977 27.9327 46.7977 27.5852V26.6345L48.7043 27.9028C49.4257 28.3827 50.3578 28.3827 51.0793 27.9028C51.6782 27.5044 52.0358 26.837 52.0358 26.1176C52.0358 25.3983 51.6782 24.7309 51.0793 24.3326L31.3518 11.2096C30.9816 10.9633 30.5035 10.9633 30.1334 11.2096L18.687 18.8239C18.3978 19.0162 18.3192 19.4067 18.5116 19.6961C18.7041 19.9853 19.0947 20.0639 19.3838 19.8713L30.7426 12.3153L50.3825 25.3801C50.6337 25.5472 50.7778 25.816 50.7778 26.1177C50.7778 26.4194 50.6337 26.6882 50.3825 26.8553C50.0845 27.0536 49.6993 27.0536 49.4012 26.8553L31.3518 14.8486C30.9816 14.6025 30.5035 14.6023 30.1334 14.8486L12.0838 26.8553C11.7858 27.0534 11.4007 27.0536 11.1026 26.8552C10.8514 26.6882 10.7074 26.4194 10.7074 26.1177C10.7074 25.816 10.8514 25.5472 11.1026 25.3801L16.1295 22.0361C16.4188 21.8437 16.4973 21.4532 16.3049 21.1639C16.1124 20.8748 15.7219 20.7961 15.4327 20.9886L10.4057 24.3325C9.80682 24.7309 9.44922 25.3982 9.44922 26.1177C9.44922 26.8372 9.80682 27.5045 10.4057 27.9028C10.7665 28.1428 11.1798 28.2628 11.5933 28.2628C12.0066 28.2627 12.4201 28.1427 12.7807 27.9028L14.6873 26.6345V48.1789H12.2765C11.2298 48.1789 10.3784 49.0304 10.3784 50.0769C10.3784 51.1235 11.2298 51.9749 12.2765 51.9749H49.2087C50.2553 51.9749 51.1067 51.1234 51.1067 50.0769C51.1067 49.0303 50.2553 48.1789 49.2087 48.1789H46.7978V45.0784C46.7978 44.7309 46.5161 44.4493 46.1687 44.4493C45.8213 44.4493 45.5396 44.7309 45.5396 45.0784V48.1789H39.5569V43.5628H51.7245C52.6591 43.5628 53.4194 42.8024 53.4194 41.8678V30.796C53.4194 29.8613 52.659 29.101 51.7245 29.101ZM36.1634 27.6452C36.1634 27.0565 36.6424 26.5776 37.2311 26.5776C37.8198 26.5776 38.2987 27.0565 38.2987 27.6452V29.101H36.1634V27.6452ZM34.9053 50.7168H12.2765C11.9237 50.7168 11.6366 50.4298 11.6366 50.0769C11.6366 49.724 11.9236 49.437 12.2765 49.437H34.9053V50.7168ZM34.9053 48.1789H26.048V43.5628H34.9053V48.1789ZM38.2987 50.7168H36.1634V43.5627H38.2987V50.7168ZM49.2087 49.437C49.5615 49.437 49.8485 49.724 49.8485 50.0769C49.8485 50.4298 49.5615 50.7168 49.2087 50.7168H39.5569V49.437H49.2087ZM51.7245 42.3046H22.7377C22.4969 42.3046 22.301 42.1087 22.301 41.8678V30.796C22.301 30.5552 22.4969 30.3592 22.7377 30.3592L51.7245 30.3591C51.9654 30.3591 52.1613 30.555 52.1613 30.796V41.8678C52.1613 42.1087 51.9654 42.3046 51.7245 42.3046Z" fill="#202020"/>
<path d="M30.7442 18.7246C28.559 18.7246 26.7812 20.5024 26.7812 22.6876C26.7812 24.8728 28.559 26.6507 30.7442 26.6507C32.9294 26.6507 34.7072 24.8729 34.7072 22.6876C34.7072 20.5025 32.9294 18.7246 30.7442 18.7246ZM30.1152 25.3178C29.1274 25.0816 28.3488 24.3022 28.1134 23.314H30.1152V25.3178ZM30.1152 22.0559H28.1147C28.3516 21.0701 29.1292 20.2933 30.1152 20.0575V22.0559ZM31.3733 20.0575C32.3594 20.2933 33.137 21.0702 33.3738 22.0559H31.3733V20.0575ZM31.3733 25.3178V23.314H33.375C33.1397 24.3022 32.3611 25.0815 31.3733 25.3178Z" fill="#202020"/>
<path d="M31.4262 38.9411L30.232 36.7262C30.9156 36.5165 31.426 35.9513 31.426 34.903C31.426 33.4537 30.4598 32.998 29.2657 32.998H27.461C27.2331 32.998 27.0781 33.1713 27.0781 33.3626V39.2875C27.0781 39.5336 27.3789 39.6612 27.6706 39.6612C27.9714 39.6612 28.2631 39.5336 28.2631 39.2875V36.9084H29.0288L30.3232 39.4242C30.4144 39.6065 30.5693 39.7068 30.7334 39.7068C31.0798 39.7068 31.4717 39.3878 31.4717 39.0871C31.4717 39.0506 31.4626 38.9867 31.4262 38.9411ZM29.2657 35.9787H28.2631V34.0372H29.2657C29.8583 34.0372 30.2411 34.2924 30.2411 35.0125C30.2411 35.7327 29.8582 35.9787 29.2657 35.9787Z" fill="#202020"/>
<path d="M36.2197 38.6221H33.64V36.7899H35.0255C35.2808 36.7899 35.3993 36.5438 35.3993 36.3341C35.3993 36.0881 35.2625 35.8601 35.0255 35.8601H33.64V34.037H36.2197V34.0372C36.4566 34.0372 36.5934 33.7911 36.5934 33.5084C36.5934 33.2624 36.4749 32.998 36.2197 32.998H32.9746C32.7103 32.998 32.4551 33.1257 32.4551 33.3718V39.2875C32.4551 39.5336 32.7103 39.6612 32.9746 39.6612H36.2197C36.4749 39.6612 36.5934 39.3968 36.5934 39.1508C36.5934 38.8682 36.4566 38.6221 36.2197 38.6221Z" fill="#202020"/>
<path d="M41.2972 32.998C40.9964 32.998 40.7047 33.1074 40.7047 33.3626V37.0269L38.9454 33.627C38.6628 33.0892 38.4896 32.998 38.0612 32.998C37.7605 32.998 37.4688 33.1166 37.4688 33.3718V39.2875C37.4688 39.5336 37.7604 39.6612 38.0612 39.6612C38.3529 39.6612 38.6537 39.5336 38.6537 39.2875V35.6232L40.6136 39.2875C40.7686 39.57 41.0146 39.6612 41.2972 39.6612C41.5888 39.6612 41.8896 39.5336 41.8896 39.2875V33.3627C41.8896 33.1075 41.5889 32.998 41.2972 32.998Z" fill="#202020"/>
<path d="M46.9541 32.998H43.0984C42.8431 32.998 42.7246 33.2716 42.7246 33.5267C42.7246 33.8184 42.8614 34.0646 43.0984 34.0646H44.4382V39.2876C44.4382 39.5337 44.7299 39.6613 45.0308 39.6613C45.3225 39.6613 45.6233 39.5337 45.6233 39.2876V34.0646H46.9541C47.191 34.0646 47.3277 33.8093 47.3277 33.5267C47.3277 33.2716 47.2093 32.998 46.9541 32.998Z" fill="#202020"/>
</svg>
