<svg width="50" height="49" viewBox="0 0 50 49" fill="none" xmlns="http://www.w3.org/2000/svg">
<path fill-rule="evenodd" clip-rule="evenodd" d="M24.2233 7.48552C24.1723 7.56254 24.0517 7.66221 23.9543 7.71205C23.8616 7.76188 23.7224 7.85249 23.6482 7.91138C23.574 7.97481 23.5184 8.04277 23.523 8.06089C23.523 8.07901 23.4535 8.13791 23.37 8.18774C23.2819 8.23758 23.101 8.36896 22.9666 8.48222C22.8321 8.59548 22.6373 8.77217 22.5353 8.8809C22.4286 8.9851 22.322 9.07571 22.2988 9.07571C22.2756 9.07571 22.206 9.11648 22.1457 9.16179C22.0901 9.21162 22.0437 9.27052 22.0437 9.2977C22.0437 9.32488 22.0159 9.34301 21.9834 9.34301C21.9556 9.34301 21.7933 9.46533 21.6264 9.61483C21.4594 9.76434 21.3018 9.89119 21.2786 9.89119C21.2554 9.89119 21.1626 9.97274 21.0792 10.0679C21.0003 10.1675 20.8983 10.2491 20.8612 10.2491C20.8241 10.2491 20.7824 10.2808 20.7685 10.3171C20.7546 10.3533 20.7175 10.385 20.685 10.385C20.6572 10.385 20.5876 10.4258 20.5366 10.4756C20.516 10.4939 20.484 10.5233 20.4468 10.5575L20.4467 10.5577L20.4466 10.5577L20.4466 10.5578L20.4464 10.5579L20.4462 10.5581L20.4462 10.5581L20.4459 10.5584C20.3912 10.6087 20.3254 10.6692 20.2676 10.7203C20.1749 10.8109 20.0961 10.8743 20.0961 10.8607C20.0961 10.8471 20.0172 10.9151 19.9198 11.0057C19.8271 11.1008 19.6741 11.2367 19.5859 11.3137C19.4978 11.3862 19.368 11.4723 19.2938 11.504C19.2242 11.5357 19.1732 11.581 19.1779 11.6037C19.1871 11.6263 19.0063 11.794 18.7791 11.9752C18.5565 12.1609 18.2829 12.3648 18.1808 12.4328C18.0742 12.5053 18.0093 12.5596 18.0324 12.5596C18.0556 12.5551 18.0464 12.5868 18.0093 12.6276C17.9722 12.6684 17.9072 12.6955 17.8701 12.6955C17.833 12.691 17.7449 12.7635 17.6707 12.8541C17.6012 12.9402 17.5131 13.0127 17.476 13.0127C17.4389 13.0127 17.3647 13.0761 17.3137 13.1486C17.2626 13.2211 17.1977 13.2845 17.1745 13.2845C17.1467 13.2845 17.1003 13.3026 17.0679 13.3298C17.0401 13.3524 16.9566 13.4204 16.8917 13.4748C16.8221 13.5337 16.6876 13.6424 16.5902 13.7149C16.4929 13.7874 16.3491 13.9188 16.2749 13.9958C16.1961 14.0773 16.1126 14.1453 16.0848 14.1453C16.0569 14.1453 15.9642 14.2268 15.8761 14.3265C15.788 14.4262 15.6952 14.5077 15.6674 14.5077C15.6396 14.5077 15.5422 14.5711 15.4495 14.6527C15.3567 14.7342 15.2222 14.852 15.148 14.9155C15.0785 14.9789 14.9857 15.0468 14.944 15.074C14.9023 15.1012 14.7585 15.2099 14.624 15.3232C14.4895 15.4365 14.3319 15.5678 14.2716 15.6177L14.1603 15.7083L14.1417 18.3812C16.4743 18.3631 17.1792 18.3722 17.207 18.3903C17.2534 18.4175 17.2673 19.2964 17.2766 22.2684L17.2905 26.1102C28.2716 26.1057 31.4807 26.0966 31.5039 26.083C31.5363 26.0694 31.5502 24.742 31.5502 22.2457C31.5502 20.1436 31.5641 18.4175 31.5781 18.4039C31.592 18.3903 31.8146 18.3767 32.0742 18.3722C32.3339 18.3722 32.7652 18.3677 33.0342 18.3631C33.1643 18.3631 33.3411 18.3621 33.5237 18.361C33.7184 18.3598 33.9196 18.3586 34.0776 18.3586C34.3836 18.3541 34.6387 18.3495 34.648 18.345C34.6572 18.3405 34.6665 17.7606 34.6711 17.0629L34.6804 15.7853C34.3558 15.4727 34.1981 15.3504 34.1239 15.3096C34.0497 15.2688 33.8086 15.0695 33.5906 14.8656C33.3727 14.6617 33.113 14.4443 33.0063 14.3763C32.9043 14.3129 32.7188 14.1634 32.6029 14.0456C32.4823 13.9233 32.3525 13.8281 32.3154 13.8281C32.2783 13.8281 32.1809 13.7466 32.1067 13.6469C32.0325 13.5473 31.9583 13.4748 31.9444 13.4884C31.9305 13.502 31.8563 13.4476 31.7821 13.3751C31.7079 13.3026 31.643 13.2528 31.643 13.2754C31.6476 13.2936 31.6059 13.2528 31.5502 13.1848C31.4992 13.1123 31.425 13.058 31.3879 13.058C31.3508 13.058 31.272 12.9945 31.2163 12.9221C31.1561 12.845 31.0958 12.7861 31.0772 12.7861C31.054 12.7861 30.9752 12.7363 30.901 12.6729C30.8268 12.6095 30.7758 12.5506 30.7943 12.537C30.8083 12.5234 30.7943 12.5143 30.7572 12.5143C30.7201 12.5143 30.6367 12.46 30.5718 12.392C30.5068 12.3195 30.3631 12.1927 30.2518 12.1066C30.1405 12.0205 29.9782 11.8801 29.8854 11.7985C29.7927 11.717 29.6675 11.6218 29.6026 11.5856C29.5376 11.5539 29.431 11.4633 29.3614 11.3862C29.2872 11.3092 29.2037 11.2458 29.1759 11.2458C29.1435 11.2503 29.0414 11.1688 28.9533 11.0646C28.8652 10.9649 28.7771 10.8834 28.7586 10.8834C28.7354 10.8834 28.6612 10.8381 28.5823 10.7837C28.5081 10.7248 28.4571 10.6659 28.4664 10.6478C28.4803 10.6251 28.4757 10.6115 28.4571 10.6115C28.434 10.6161 28.369 10.5662 28.3041 10.5073C28.2392 10.453 28.0444 10.2989 27.8636 10.1721C27.6827 10.0407 27.5111 9.89572 27.4833 9.84588C27.4508 9.79152 27.2932 9.6692 27.1355 9.57406C26.9732 9.47439 26.7692 9.30676 26.681 9.20256C26.5929 9.09383 26.426 8.94886 26.3101 8.87637C26.1941 8.80841 26.0272 8.67703 25.9391 8.59095C25.851 8.50487 25.735 8.39161 25.684 8.34631C25.633 8.29647 25.5634 8.26023 25.5356 8.2557C25.5032 8.2557 25.4475 8.21492 25.4197 8.16962C25.3872 8.12432 25.2157 7.97934 25.0348 7.85249C24.8539 7.72111 24.7148 7.59878 24.7241 7.57613C24.7287 7.54895 24.7195 7.53989 24.7009 7.55348C24.6777 7.56254 24.6128 7.52177 24.5479 7.45834C24.483 7.39944 24.4088 7.34961 24.3763 7.34961C24.3485 7.34961 24.2789 7.41304 24.2233 7.48552ZM24.1126 9.54754C24.0115 9.63745 23.8743 9.75939 23.792 9.82777C23.6992 9.90932 23.5972 9.97727 23.574 9.97727C23.5508 9.97727 23.4906 10.0226 23.4488 10.0815C23.4024 10.1404 23.3283 10.2038 23.2865 10.231C23.2448 10.2536 23.0871 10.385 22.9341 10.5209C22.781 10.6568 22.5585 10.8426 22.4379 10.9287C22.3173 11.0147 22.0994 11.196 21.9556 11.3273C21.8118 11.4587 21.6588 11.5765 21.6171 11.5856C21.5707 11.5992 21.5429 11.6264 21.5568 11.6535C21.5707 11.6762 21.5661 11.6988 21.5475 11.6988C21.5243 11.6943 21.427 11.7713 21.3249 11.8619C21.2229 11.9525 21.0189 12.1021 20.8751 12.2017C20.7267 12.2969 20.5783 12.4192 20.5505 12.4645C20.518 12.5143 20.3325 12.6684 20.1424 12.8088C19.9523 12.9538 19.79 13.0806 19.7853 13.0987C19.7807 13.1123 19.6091 13.2618 19.4051 13.4295C19.1964 13.6016 19.0295 13.724 19.0295 13.7013C19.0295 13.6832 18.997 13.7149 18.9506 13.7693C18.9042 13.8236 18.8532 13.8689 18.8347 13.8735C18.8115 13.8735 18.7141 13.9595 18.6121 14.0637C18.5101 14.1725 18.4266 14.2359 18.4266 14.2132C18.4266 14.1861 18.3941 14.2132 18.3478 14.2676C18.3014 14.322 18.2365 14.3673 18.2086 14.3718C18.1762 14.3718 18.0788 14.4534 18 14.553C17.9165 14.6527 17.8238 14.7342 17.8006 14.7342C17.7774 14.7388 17.5965 14.8702 17.4064 15.0287C17.3601 15.0673 17.3117 15.1078 17.2636 15.1479C17.1142 15.2727 16.9687 15.3941 16.9056 15.4455C16.8175 15.5135 16.6505 15.6675 16.5346 15.7853C16.414 15.9031 16.2888 15.9982 16.261 16.0028C16.2285 16.0028 16.1172 16.0753 16.0152 16.1613C15.9132 16.2474 15.8436 16.3199 15.8668 16.3244C15.8854 16.3244 15.8529 16.3425 15.7972 16.3697C15.737 16.3924 15.6674 16.4558 15.6396 16.5102C15.6118 16.5691 15.5978 16.6642 15.6118 16.7276C15.6257 16.7911 15.6767 16.85 15.723 16.8635C15.7694 16.8771 16.4789 16.8907 17.2997 16.8862H18.7976C18.8022 19.5909 18.8069 21.3124 18.8115 22.4586L18.8208 24.5381C19.0248 24.6378 20.2491 24.6514 24.4319 24.6514C29.0785 24.6514 29.8251 24.6423 29.9179 24.588L30.0199 24.52L29.9967 16.9089C30.3213 16.9043 30.9796 16.9043 31.6658 16.9043H31.6661C32.5982 16.9089 32.946 16.8953 33.0342 16.85C33.1223 16.8092 33.1547 16.7548 33.164 16.6234C33.1686 16.4966 33.1547 16.4513 33.0944 16.4332C33.0481 16.4241 32.9646 16.3516 32.9089 16.2746C32.8487 16.2021 32.7745 16.1387 32.7466 16.1387C32.7142 16.1387 32.6261 16.0753 32.5472 16.0028C32.473 15.9303 32.3293 15.8034 32.2365 15.7219C32.1917 15.6825 32.1404 15.6378 32.0936 15.597C32.0435 15.5534 31.9986 15.5142 31.9722 15.4908C31.9623 15.4836 31.9529 15.4766 31.944 15.4701C31.9031 15.4399 31.8748 15.4191 31.8748 15.4229C31.8702 15.4319 31.7914 15.3685 31.6986 15.287C31.6059 15.2009 31.425 15.0423 31.2952 14.9336C31.17 14.8248 31.0401 14.7342 31.0169 14.7342C30.9937 14.7342 30.8964 14.6663 30.8082 14.5893C30.7201 14.5077 30.6506 14.4262 30.6598 14.408C30.6645 14.3899 30.6367 14.3718 30.5996 14.3718C30.5625 14.3718 30.5207 14.3401 30.5068 14.3038C30.4929 14.2676 30.4604 14.2359 30.4373 14.2359C30.4141 14.2359 30.3399 14.1725 30.275 14.1C30.21 14.0275 30.1312 13.9641 30.1034 13.9641C30.0709 13.9595 29.9967 13.9188 29.9411 13.8735C29.8808 13.8236 29.8344 13.7647 29.8344 13.7375C29.8344 13.7104 29.8112 13.6922 29.788 13.6922C29.7648 13.6922 29.6257 13.588 29.4866 13.4657C29.3475 13.3389 29.1759 13.2029 29.1063 13.1622C29.0322 13.1169 28.9394 13.0353 28.8977 12.981C28.8467 12.9175 28.791 12.8903 28.7586 12.9085C28.7184 12.9326 28.7106 12.9251 28.7354 12.8858C28.7539 12.8541 28.7261 12.8088 28.6519 12.7726C28.587 12.7454 28.536 12.7046 28.536 12.6819C28.536 12.6638 28.5128 12.6502 28.4896 12.6502C28.4664 12.6502 28.4107 12.6185 28.3737 12.5823C28.3366 12.546 28.318 12.5143 28.3412 12.5143C28.3597 12.5098 28.3041 12.4826 28.2253 12.4464C28.1418 12.4101 28.063 12.3376 28.049 12.2878C28.0351 12.2334 27.9888 12.1972 27.9331 12.1972C27.8821 12.1972 27.8033 12.1428 27.7615 12.0749C27.7152 12.0114 27.5621 11.8619 27.4184 11.7487C27.2746 11.6354 27.0984 11.4995 27.0242 11.4497C26.9546 11.3998 26.8526 11.3183 26.797 11.2684C26.746 11.2186 26.6903 11.1824 26.6718 11.1869C26.6486 11.196 26.6393 11.1778 26.6486 11.1507C26.6532 11.1235 26.5836 11.06 26.4955 11.0147C26.4074 10.9649 26.31 10.8879 26.2822 10.8471C26.2544 10.8063 26.1338 10.7067 26.0179 10.6342C25.8973 10.5617 25.7999 10.4711 25.7999 10.4394C25.7999 10.4122 25.7397 10.3533 25.6608 10.3171C25.5866 10.2808 25.5078 10.2219 25.4892 10.1902C25.4661 10.1585 25.3965 10.0996 25.3269 10.0543C25.2527 10.0135 25.1507 9.94103 25.0951 9.89572C25.0441 9.85495 24.9606 9.78246 24.9096 9.73716C24.8632 9.69638 24.7751 9.6239 24.7102 9.57859C24.6452 9.53782 24.6035 9.49251 24.6174 9.47892C24.6267 9.46533 24.6035 9.43362 24.5571 9.40191C24.5154 9.37019 24.4458 9.34754 24.4087 9.34754C24.3716 9.34754 24.2557 9.42003 24.1491 9.51517C24.1376 9.52533 24.1254 9.53618 24.1126 9.54754Z" fill="#202020"/>
<path d="M36.438 21.5435C36.4287 21.5616 35.6914 21.5707 34.7964 21.5616L33.1733 21.5526V22.9796C35.1673 22.9796 35.7145 22.9978 35.7702 23.025C35.8212 23.0476 35.8722 23.1337 35.8861 23.2062C35.9 23.2787 35.9418 23.3511 35.9789 23.3647C36.016 23.3783 36.0484 23.4282 36.0484 23.478C36.0484 23.5278 36.0902 23.623 36.1412 23.6909C36.1968 23.7634 36.2339 23.8495 36.2339 23.8857C36.2293 23.922 36.2617 23.9809 36.3035 24.0081C36.3406 24.0398 36.3684 24.0805 36.3684 24.0987C36.3638 24.1213 36.3638 24.1712 36.3684 24.2119C36.3684 24.2572 36.4148 24.3297 36.4611 24.3705C36.5122 24.4158 36.5585 24.4928 36.5678 24.5427C36.5724 24.5925 36.6095 24.6604 36.642 24.6876C36.6698 24.7193 36.6884 24.7692 36.6745 24.7918C36.6606 24.8145 36.7069 24.9232 36.7765 25.0274C36.846 25.1361 36.9063 25.263 36.911 25.3128C36.9156 25.3627 36.9434 25.4533 36.9759 25.5167C37.0084 25.5801 37.0501 25.639 37.0686 25.6526C37.0825 25.6662 37.1289 25.7477 37.1707 25.8338C37.2124 25.9199 37.2588 26.0422 37.282 26.1057C37.3005 26.1691 37.3561 26.2597 37.4025 26.3095C37.4489 26.3594 37.486 26.4364 37.486 26.4771C37.486 26.5225 37.5092 26.5678 37.5324 26.5814C37.5556 26.5949 37.5787 26.6448 37.5787 26.6946C37.5787 26.7444 37.6251 26.8713 37.6854 26.971C37.741 27.0752 37.8013 27.1658 37.8245 27.1748C37.8431 27.1839 37.857 27.2337 37.857 27.2836C37.857 27.3334 37.908 27.4693 37.9729 27.5871C38.0378 27.7094 38.0888 27.8272 38.0888 27.8499C38.0842 27.8725 38.1167 27.9224 38.1584 27.9495C38.1955 27.9813 38.2187 28.022 38.2048 28.0402C38.1955 28.0628 38.2372 28.1489 38.2975 28.235C38.3624 28.321 38.4135 28.4207 38.4135 28.4479C38.4135 28.4796 38.4645 28.6155 38.5294 28.7424C38.5943 28.8738 38.6871 29.0459 38.7334 29.1184C38.7844 29.1909 38.8262 29.2906 38.8262 29.3313C38.8308 29.3766 38.8772 29.499 38.9282 29.6032C38.9838 29.7119 39.0488 29.807 39.072 29.8206C39.0905 29.8342 39.1183 29.884 39.1276 29.9339C39.1415 29.9837 39.1508 30.0517 39.1508 30.0789C39.1554 30.1106 39.1833 30.1649 39.2157 30.1921C39.2528 30.2238 39.3316 30.3507 39.3966 30.4775C39.4615 30.5999 39.5264 30.7675 39.5496 30.84C39.5682 30.9125 39.6192 31.0257 39.6702 31.0891C39.7165 31.1526 39.7676 31.2658 39.7815 31.3383C39.7954 31.4108 39.851 31.5286 39.8974 31.5966C39.9484 31.669 39.9901 31.7642 39.9901 31.814C39.9901 31.8638 40.0272 31.9409 40.0736 31.9816C40.12 32.0269 40.171 32.1085 40.1896 32.1629C40.2081 32.2263 40.2591 32.2671 40.3148 32.2671C40.3658 32.2671 40.4168 32.2897 40.4307 32.3124C40.4446 32.3395 40.964 32.3577 41.859 32.3531C42.6288 32.3531 43.2873 32.3395 43.3197 32.3305C43.3615 32.3169 43.3754 32.1266 43.3754 31.5875V30.8626C41.5436 30.8626 41.3396 30.849 41.2561 30.7947C41.1959 30.7584 41.1402 30.6633 41.1263 30.5908C41.1124 30.5183 41.0799 30.4549 41.0475 30.4549C41.0196 30.4549 41.0104 30.4413 41.0243 30.4186C41.0428 30.4005 41.0289 30.3597 40.9964 30.328C40.9686 30.2963 40.9547 30.2691 40.9779 30.2737C40.9964 30.2737 40.9686 30.2329 40.9176 30.1831C40.8666 30.1332 40.8341 30.0653 40.8434 30.0336C40.8527 30.0064 40.8249 29.9158 40.7831 29.8387C40.7623 29.798 40.7356 29.7447 40.7089 29.6915C40.6823 29.6383 40.6556 29.585 40.6347 29.5443C40.593 29.4582 40.4956 29.2498 40.4261 29.0776C40.3519 28.91 40.2777 28.7605 40.2591 28.7514C40.2359 28.7424 40.171 28.6291 40.1061 28.5068C40.0412 28.3799 39.9994 28.2576 40.0133 28.235C40.0272 28.2123 40.0133 28.1897 39.9901 28.1897C39.967 28.1897 39.953 28.167 39.967 28.1444C39.9809 28.1217 39.9577 28.0855 39.9159 28.0628C39.8788 28.0447 39.8232 27.9586 39.8 27.8725C39.7926 27.8496 39.7848 27.8253 39.7772 27.8014L39.7772 27.8013C39.7562 27.7356 39.736 27.6726 39.7258 27.646C39.7073 27.6098 39.6934 27.569 39.6934 27.5554C39.6887 27.5418 39.6563 27.4648 39.6192 27.3832C39.5821 27.3017 39.5357 27.2337 39.5171 27.2383C39.494 27.2383 39.4893 27.2066 39.5032 27.1703C39.5171 27.1341 39.4847 27.0616 39.4337 27.0117C39.3827 26.9619 39.3409 26.8804 39.3409 26.8305C39.3409 26.7807 39.3177 26.7399 39.2945 26.7399C39.2714 26.7399 39.2575 26.7173 39.2714 26.6946C39.2853 26.672 39.2621 26.6176 39.225 26.5814C39.1879 26.5451 39.1693 26.5134 39.1925 26.5134C39.2111 26.5179 39.2018 26.4907 39.174 26.459C39.1462 26.4273 39.1091 26.3458 39.0905 26.2733C39.0766 26.2053 39.0395 26.151 39.0163 26.151C38.9931 26.151 38.9699 26.1147 38.9699 26.0694C38.9699 26.0286 38.9282 25.9426 38.8772 25.8791C38.8262 25.8157 38.7844 25.7296 38.7844 25.6843C38.7844 25.6435 38.7334 25.5122 38.6731 25.3898C38.6683 25.3803 38.6632 25.3703 38.6578 25.36C38.6508 25.3463 38.6434 25.3319 38.6357 25.3171C38.5779 25.2047 38.5059 25.065 38.4645 24.973C38.4088 24.8598 38.3485 24.7375 38.3253 24.7012C38.3022 24.665 38.228 24.5291 38.163 24.4067C38.0981 24.2799 38.061 24.1666 38.0749 24.144C38.0935 24.1259 38.0842 24.1123 38.061 24.1123C38.0378 24.1123 37.9776 23.999 37.9265 23.8586C37.8755 23.7181 37.806 23.5958 37.7781 23.5867C37.7457 23.5777 37.7179 23.5369 37.7179 23.5006C37.7179 23.4644 37.6808 23.3647 37.6344 23.2832C37.588 23.2062 37.5556 23.1156 37.5602 23.0929C37.5695 23.0703 37.5138 22.9434 37.4396 22.8211C37.3654 22.6942 37.268 22.5221 37.2263 22.436C37.1846 22.3499 37.1289 22.2367 37.1011 22.1868L37.0917 22.17C37.0628 22.1184 37.0189 22.0398 36.9898 21.9829C36.9573 21.9195 36.9202 21.8063 36.9063 21.7338C36.8878 21.6613 36.8553 21.5752 36.8321 21.5526C36.8043 21.5299 36.7116 21.5073 36.6235 21.5073C36.5307 21.5073 36.4472 21.5208 36.438 21.539V21.5435Z" fill="#202020"/>
<path d="M11.99 21.6341C12.0689 21.5933 12.5187 21.5752 13.7197 21.5661C14.6147 21.5616 15.4077 21.5571 15.6396 21.548L15.6442 22.9842H14.369C13.154 22.9842 13.0891 22.9887 13.001 23.0748C12.9499 23.1246 12.9082 23.1971 12.9082 23.2334C12.9082 23.2696 12.8943 23.3013 12.8757 23.3013C12.8526 23.3013 12.834 23.3466 12.8294 23.401C12.8247 23.4599 12.7737 23.5595 12.7227 23.6275C12.6717 23.7 12.6161 23.8178 12.5975 23.8948C12.5743 23.9763 12.5326 24.0488 12.5048 24.0534C12.4723 24.0624 12.4445 24.1123 12.4445 24.1621C12.4445 24.2119 12.4213 24.298 12.3888 24.3524C12.361 24.4113 12.31 24.4838 12.2729 24.5109C12.2404 24.5427 12.2219 24.5925 12.2358 24.6151C12.2497 24.6378 12.1987 24.7782 12.1291 24.9187C12.0549 25.0637 11.9483 25.2811 11.888 25.408C11.8231 25.5303 11.7489 25.6617 11.7164 25.6889C11.684 25.7206 11.6237 25.861 11.5866 25.9969C11.5495 26.1328 11.4846 26.2552 11.4475 26.2687C11.4104 26.2823 11.3779 26.305 11.3779 26.3231C11.3779 26.3458 11.3454 26.4409 11.2991 26.5406C11.2527 26.6402 11.2156 26.7444 11.2156 26.7671C11.2156 26.7898 11.1831 26.8804 11.146 26.9619C11.1089 27.0435 11.0579 27.1069 11.0301 27.1069C11.0023 27.1069 10.9976 27.1159 11.0208 27.1295C11.0394 27.1431 11.0023 27.2292 10.9373 27.3198C10.8724 27.415 10.8168 27.5327 10.8214 27.5826C10.8214 27.6324 10.7565 27.7638 10.6823 27.8771C10.6035 27.9903 10.5107 28.1806 10.4736 28.3075C10.4412 28.4298 10.367 28.5793 10.3159 28.6336C10.2603 28.6925 10.2278 28.7696 10.2418 28.8058C10.2557 28.842 10.2464 28.8738 10.2186 28.8738C10.1907 28.8738 10.1722 28.9055 10.1722 28.9417C10.1722 28.978 10.1536 29.0097 10.1258 29.0097C10.098 29.0097 10.0702 29.0912 10.0563 29.1909C10.0423 29.2906 9.99134 29.4083 9.94496 29.4491C9.89395 29.4944 9.84294 29.5941 9.82903 29.6666C9.81512 29.7391 9.78266 29.807 9.75483 29.8116C9.73165 29.8206 9.70846 29.8659 9.70846 29.9158C9.70846 29.9656 9.68991 30.0064 9.66209 30.0064C9.63426 30.0064 9.60644 30.0426 9.59253 30.0834C9.57959 30.1255 9.56265 30.2029 9.54915 30.2645L9.54615 30.2782C9.53224 30.3416 9.46268 30.4775 9.38385 30.5817C9.30965 30.6905 9.254 30.8083 9.26791 30.8445C9.28183 30.8807 9.27255 30.9125 9.24473 30.9125C9.2169 30.9125 9.20763 30.9351 9.22154 30.9578C9.23545 30.9804 9.23082 31.0031 9.21227 31.0031C9.18908 31.0031 9.13807 31.0756 9.09633 31.1707C9.0546 31.2658 8.99895 31.4153 8.97113 31.5014C8.94794 31.5875 8.89229 31.6736 8.85519 31.6917C8.81346 31.7143 8.781 31.7642 8.781 31.805C8.781 31.8503 8.73926 31.9726 8.68825 32.0768C8.63724 32.1855 8.55377 32.2942 8.50276 32.3169C8.44711 32.3441 7.82107 32.3622 6.92607 32.3622C5.96614 32.3622 5.44213 32.3441 5.44213 32.3169V30.9215C5.44213 30.849 5.51632 30.8445 7.45936 30.8672L7.59848 30.7312C7.67268 30.6588 7.72369 30.5817 7.70514 30.5636C7.68659 30.541 7.71441 30.4503 7.76079 30.3552C7.8118 30.2646 7.87208 30.1876 7.89991 30.1876C7.92773 30.1876 7.96019 30.1423 7.9741 30.0834C7.99265 30.029 8.0112 29.9339 8.02048 29.8705C8.02511 29.807 8.05294 29.7481 8.07149 29.7345C8.09467 29.7209 8.1596 29.6394 8.21524 29.5533C8.27089 29.4672 8.31726 29.3404 8.31726 29.2679C8.31726 29.1999 8.33581 29.1456 8.36364 29.1456C8.39146 29.1456 8.40537 29.132 8.40074 29.1093C8.3961 29.0912 8.41929 29.0142 8.45175 28.9417C8.48421 28.8692 8.53985 28.7831 8.57695 28.7605C8.61405 28.7378 8.65115 28.6427 8.66043 28.5566C8.67434 28.4705 8.71144 28.3845 8.7439 28.3663C8.77636 28.3482 8.80882 28.312 8.81809 28.2848C8.82273 28.2621 8.82737 28.2304 8.82737 28.2168C8.82737 28.2088 8.83059 28.1977 8.83419 28.1852C8.83669 28.1765 8.83938 28.1672 8.84128 28.1579C8.85055 28.1398 8.89229 28.0492 8.93403 27.9541C8.9804 27.8635 9.01286 27.7729 9.01286 27.7502C9.0175 27.7321 9.04996 27.6958 9.0917 27.6732C9.12879 27.6505 9.16589 27.5871 9.17053 27.5373C9.1798 27.4874 9.19835 27.4014 9.21227 27.3425C9.23082 27.2881 9.26328 27.2428 9.2911 27.2428C9.31892 27.2428 9.3282 27.2201 9.31429 27.1975C9.30037 27.1748 9.30965 27.1431 9.33747 27.1295C9.3653 27.1159 9.37457 27.0842 9.36066 27.0616C9.34675 27.0389 9.36993 27.0072 9.40703 26.9936C9.44413 26.98 9.47659 26.9302 9.47659 26.8804C9.47659 26.8305 9.51369 26.7173 9.56006 26.6312C9.6018 26.5406 9.65281 26.4726 9.676 26.4726C9.69455 26.4726 9.69918 26.45 9.68527 26.4273C9.67136 26.4047 9.676 26.382 9.69918 26.382C9.71773 26.382 9.75947 26.2959 9.79657 26.1917C9.82903 26.083 9.89859 25.9426 9.94496 25.8701C9.99597 25.8021 10.0238 25.7477 10.0099 25.7477C9.99597 25.7477 10.0284 25.6843 10.0794 25.6118C10.1305 25.5393 10.1722 25.4487 10.1722 25.417C10.1722 25.3898 10.2047 25.2811 10.2464 25.1814C10.2881 25.0818 10.353 24.964 10.3948 24.9187C10.4412 24.8734 10.4597 24.8371 10.4412 24.8417C10.418 24.8417 10.4551 24.7692 10.52 24.6831C10.5849 24.597 10.6266 24.5019 10.6127 24.4792C10.5988 24.4566 10.6081 24.4249 10.6359 24.4113C10.6637 24.3977 10.6823 24.3524 10.6823 24.3071C10.6823 24.2663 10.7287 24.1893 10.7797 24.1394C10.8307 24.0896 10.8817 23.9763 10.8956 23.8903C10.9049 23.8042 10.942 23.7181 10.9744 23.7C11.0069 23.6819 11.0347 23.623 11.044 23.5731C11.0486 23.5233 11.1043 23.41 11.1692 23.324C11.2341 23.2379 11.2759 23.1337 11.262 23.0974C11.248 23.0612 11.2805 22.9887 11.3315 22.9389C11.3825 22.889 11.4475 22.7667 11.4753 22.667C11.4985 22.5674 11.5495 22.4858 11.5773 22.4858C11.6098 22.4858 11.619 22.4722 11.6005 22.4541C11.5773 22.4315 11.5912 22.3907 11.6237 22.359C11.6515 22.3273 11.6608 22.3001 11.6329 22.3046C11.6051 22.3046 11.6237 22.282 11.6747 22.2502C11.7211 22.2185 11.7628 22.1506 11.7674 22.1007C11.7721 22.0509 11.8045 21.9376 11.8324 21.8516C11.8602 21.7655 11.9344 21.6658 11.99 21.6341Z" fill="#202020"/>
<path d="M33.8503 26.7173C33.7576 26.7444 33.6927 26.7852 33.7159 26.8033C33.7344 26.8215 33.7019 26.8396 33.637 26.8396C33.5721 26.8396 33.4701 26.8486 33.4052 26.8622C33.3402 26.8713 33.2568 26.894 33.2197 26.9121C33.2 26.9193 33.179 26.9278 33.1615 26.9348L33.1614 26.9349L33.1606 26.9352L33.1545 26.9377C33.1516 26.9389 33.1487 26.94 33.146 26.9411C33.1406 26.9433 33.1358 26.9451 33.132 26.9465C33.1301 26.9472 33.1283 26.9479 33.1269 26.9483C33.113 26.9528 33.0388 26.98 32.9646 27.0117C32.8904 27.0389 32.7977 27.0525 32.7652 27.0389C32.7374 27.0253 32.6864 27.048 32.6632 27.0842C32.6307 27.1295 32.6354 27.1839 32.6725 27.2519C32.7003 27.3108 32.7188 27.3561 32.7142 27.3561C32.7096 27.3561 32.7142 27.3878 32.7281 27.424C32.734 27.4471 32.755 27.5144 32.7803 27.5954C32.7876 27.6191 32.7954 27.6439 32.8032 27.6691C32.8067 27.6803 32.8102 27.6916 32.8137 27.7029C32.8176 27.7157 32.8216 27.7284 32.8255 27.7411C32.8672 27.8771 32.8904 28.0175 32.8765 28.0447C32.8626 28.0764 32.8719 28.1036 32.8951 28.1036C32.9182 28.1036 32.9321 28.1353 32.9182 28.1715C32.9043 28.2078 32.9182 28.2486 32.9414 28.2621C32.9646 28.2757 32.9785 28.3075 32.9646 28.3301C32.9507 28.3528 32.9646 28.3845 32.9878 28.3981C33.011 28.4116 33.0249 28.4434 33.011 28.466C32.9971 28.4887 33.0295 28.6019 33.0805 28.7152C33.1316 28.8285 33.1779 28.9825 33.1826 29.055C33.1918 29.132 33.2104 29.1909 33.2289 29.1909C33.2521 29.1909 33.2568 29.2271 33.2428 29.2679C33.2289 29.3132 33.2428 29.363 33.2753 29.3812C33.3078 29.3993 33.3402 29.4718 33.3449 29.5397C33.3541 29.6077 33.4098 29.8206 33.4747 30.0064C33.5396 30.1921 33.586 30.3688 33.586 30.3915C33.5814 30.4141 33.5999 30.4911 33.6277 30.5591C33.6648 30.6452 33.6695 30.7131 33.637 30.7765C33.5906 30.8672 33.5443 30.8672 24.4876 30.8672C19.4839 30.8672 15.3428 30.849 15.2825 30.8309C15.1851 30.8037 15.1759 30.7811 15.2037 30.618C15.2222 30.5183 15.2872 30.2329 15.3474 29.9837C15.4124 29.7345 15.4912 29.4808 15.5237 29.4174C15.5608 29.354 15.6257 29.1728 15.6628 29.0097C15.7045 28.8466 15.7509 28.6427 15.7648 28.5566C15.7787 28.4705 15.8158 28.3709 15.8436 28.3392C15.8761 28.3074 15.8807 28.2803 15.8529 28.2803C15.8251 28.2848 15.8297 28.2667 15.8622 28.2486C15.89 28.2304 15.9271 28.1262 15.9457 28.013C15.9642 27.8997 15.9827 27.8 15.9967 27.7864C16.0059 27.7729 16.0245 27.723 16.0338 27.6732C16.0477 27.6234 16.0801 27.492 16.108 27.3787C16.1358 27.2654 16.1451 27.1477 16.1311 27.1159C16.1172 27.0888 16.0662 27.0616 16.0152 27.0616C15.9642 27.0616 15.9225 27.048 15.9225 27.0253C15.9225 27.0072 15.7926 26.9574 15.635 26.9166C15.4726 26.8758 15.2686 26.826 15.1805 26.8079C15.0924 26.7943 14.9996 26.7626 14.9718 26.7399C14.944 26.7127 14.8744 26.7037 14.8095 26.7082C14.7446 26.7173 14.6982 26.749 14.7029 26.7807C14.7121 26.8079 14.6982 26.8351 14.6704 26.8351C14.6426 26.8351 14.6333 26.8577 14.6472 26.8804C14.6611 26.903 14.6565 26.9528 14.6379 26.98C14.6194 27.0117 14.6008 27.0888 14.6008 27.1522C14.5962 27.2156 14.5452 27.3606 14.4895 27.4784C14.4385 27.6007 14.4014 27.7185 14.4153 27.7411C14.4292 27.7638 14.42 27.7955 14.3921 27.8091C14.3643 27.8227 14.3551 27.8635 14.369 27.8997C14.3829 27.936 14.3736 27.9677 14.3458 27.9677C14.318 27.9677 14.3087 27.9903 14.3226 28.013C14.3365 28.0356 14.3133 28.1761 14.2762 28.3165C14.2391 28.4615 14.1788 28.5929 14.151 28.6065C14.1185 28.6246 14.1046 28.6608 14.1232 28.688C14.1464 28.7152 14.1417 28.7469 14.1139 28.7605C14.0861 28.7741 14.0768 28.8149 14.0907 28.8511C14.1046 28.8873 14.0954 28.9191 14.0675 28.9191C14.0397 28.9191 14.0304 28.9417 14.0444 28.9644C14.0583 28.987 14.049 29.0369 14.0212 29.064C13.998 29.0957 13.9655 29.2045 13.9516 29.3041C13.9331 29.4038 13.9099 29.508 13.896 29.5307C13.8774 29.5533 13.8635 29.6258 13.8589 29.6892C13.8542 29.7527 13.8125 29.875 13.7708 29.9611C13.7244 30.0471 13.678 30.2012 13.6687 30.3008C13.6548 30.4005 13.627 30.4866 13.5992 30.4911C13.576 30.5002 13.5667 30.5274 13.5806 30.55C13.5945 30.5727 13.5853 30.6859 13.5574 30.7992C13.5296 30.9125 13.4925 31.0031 13.4647 31.0031C13.4369 31.0031 13.4276 31.0257 13.4415 31.0484C13.4554 31.071 13.4461 31.1027 13.4183 31.1163C13.3905 31.1299 13.3812 31.1798 13.3951 31.2296C13.409 31.2794 13.3998 31.3293 13.3719 31.3428C13.3441 31.3564 13.3348 31.3882 13.3488 31.4108C13.3627 31.4335 13.3395 31.5059 13.3024 31.5694C13.2653 31.6328 13.2235 31.7596 13.2096 31.8503C13.1957 31.9454 13.1679 32.0451 13.1447 32.0677C13.1215 32.0904 13.0937 32.1629 13.0844 32.2263L13.0705 32.3395C13.7893 32.335 14.1278 32.3169 14.2901 32.2942C14.5127 32.258 14.5776 32.2625 14.5776 32.3033C14.5776 32.3486 14.8002 32.3622 15.5376 32.3622C16.0709 32.3622 16.5717 32.3395 16.6505 32.3169C16.7525 32.2852 16.8128 32.2852 16.8267 32.3169C16.8407 32.3486 19.4839 32.3622 24.6174 32.3622C30.7526 32.3622 32.4035 32.3486 32.4777 32.3033C32.5519 32.258 32.5797 32.2625 32.6261 32.3078C32.6585 32.3395 32.7327 32.3622 32.7884 32.3622C32.8487 32.3622 32.8951 32.3486 32.8951 32.326C32.8951 32.3078 33.1316 32.2988 33.4191 32.3033L33.4364 32.3039C33.7136 32.3127 33.9908 32.3216 34.0544 32.3305C34.1193 32.3395 34.1981 32.3305 34.226 32.3078C34.2631 32.2897 34.3187 32.2942 34.3604 32.326C34.4207 32.3758 34.481 32.3713 34.6804 32.3169C34.8752 32.2625 34.9401 32.2625 34.9911 32.3033C35.0329 32.3441 35.1581 32.3577 35.376 32.3441C35.4902 32.3384 35.5952 32.3308 35.6617 32.3261L35.6619 32.326C35.7006 32.3233 35.7263 32.3214 35.7331 32.3214C35.7563 32.3169 35.7377 32.2489 35.696 32.1674C35.6543 32.0904 35.6125 31.9409 35.5986 31.8412C35.5893 31.7415 35.5522 31.5966 35.5198 31.5241C35.4827 31.4516 35.4224 31.3021 35.3807 31.1933C35.3389 31.0891 35.2972 30.917 35.2879 30.8083C35.2786 30.7041 35.2415 30.5274 35.2091 30.4141C35.1766 30.3008 35.121 30.1695 35.0885 30.1196C35.056 30.0698 35.0236 29.9475 35.0189 29.8433C35.0097 29.7436 34.9772 29.6303 34.9447 29.5941C34.9123 29.5579 34.8752 29.4401 34.8659 29.3268C34.852 29.2135 34.8103 29.0595 34.7778 28.987C34.7407 28.9145 34.6804 28.765 34.6387 28.6563C34.5969 28.5521 34.5552 28.3799 34.5459 28.2712C34.5367 28.167 34.4996 27.9903 34.4671 27.8771C34.4346 27.7638 34.379 27.6324 34.3465 27.5826C34.3141 27.5327 34.2816 27.4104 34.2677 27.3108C34.2584 27.2111 34.2167 27.0661 34.1749 26.9936C34.1332 26.9211 34.1054 26.8215 34.1054 26.7807C34.11 26.7399 34.0915 26.6946 34.0683 26.6856C34.0451 26.6765 33.9477 26.6901 33.8503 26.7173Z" fill="#202020"/>
<path d="M14.1139 35.6015C14.0954 35.5516 14.0861 35.4973 14.0954 35.4791C14.1093 35.461 14.202 35.452 14.3133 35.4656C14.42 35.4746 14.8188 35.4973 15.2037 35.5063C15.5839 35.5199 15.9827 35.5109 16.0848 35.4927C16.21 35.4656 16.2935 35.4701 16.3491 35.5018C16.4187 35.5471 16.4326 35.6558 16.4558 36.9606L14.1603 36.9379V36.5302C14.1603 36.3037 14.1417 36.0817 14.1139 36.0319C14.0861 35.9775 14.0814 35.8914 14.1093 35.8144C14.1278 35.7464 14.1325 35.6513 14.1139 35.6015Z" fill="#202020"/>
<path d="M29.0322 35.4746C28.5267 35.4882 28.4432 35.4973 28.4293 35.5607C28.4247 35.6015 28.4247 35.9322 28.434 36.2992L28.4479 36.9606H30.7619C30.7619 36.4441 30.7433 36.3037 30.7155 36.3037C30.6923 36.3037 30.6691 36.2629 30.6691 36.2131C30.6691 36.1632 30.6923 36.1134 30.7155 36.0998C30.7387 36.0862 30.7619 35.9458 30.7619 35.7827C30.7619 35.5788 30.7433 35.4882 30.7016 35.4837C30.6738 35.4791 30.6367 35.4791 30.6228 35.4791C30.6188 35.4791 30.6092 35.4799 30.5955 35.4809C30.561 35.4836 30.5003 35.4882 30.4373 35.4882C30.3492 35.4927 30.1266 35.4927 29.9504 35.4791C29.7695 35.4701 29.3614 35.4701 29.0322 35.4746Z" fill="#202020"/>
<path d="M9.38385 36.9379V35.4882L11.6793 35.5109V36.2221C11.6793 36.6163 11.6654 36.9379 11.6422 36.9379H9.38385Z" fill="#202020"/>
<path d="M18.9599 35.5199C18.9367 35.5426 18.9182 35.606 18.9182 35.6694C18.9182 35.689 18.9191 35.732 18.9203 35.7913C18.923 35.9241 18.9274 36.1389 18.9274 36.3581L18.9367 36.9379H21.1626L21.1673 35.5562C20.9308 35.5018 20.4439 35.4882 19.9337 35.4882C19.4236 35.4882 18.9877 35.5018 18.9599 35.5199Z" fill="#202020"/>
<path d="M23.6158 36.2539C23.6111 35.8642 23.6251 35.5335 23.6436 35.5199C23.6621 35.5018 24.1815 35.4927 24.789 35.5018C25.5634 35.5063 25.9066 35.5245 25.9298 35.5607C25.9483 35.5924 25.9576 35.9186 25.9344 36.9606H23.6204L23.6158 36.2539Z" fill="#202020"/>
<path d="M33.1733 36.9379L35.5151 36.9153C35.5383 36.1995 35.5198 35.9005 35.4827 35.7464L35.4224 35.4882H33.1733V36.9379Z" fill="#202020"/>
<path d="M37.9173 36.272C37.9126 35.905 37.9173 35.5788 37.9312 35.5471C37.9451 35.5018 38.2001 35.4882 40.2452 35.4882L40.2267 36.1995C40.2174 36.5936 40.2081 36.9198 40.2035 36.9244C40.2035 36.9289 39.6887 36.9334 37.9265 36.9425L37.9173 36.272Z" fill="#202020"/>
<path d="M5.46068 40.1772C5.4514 40.1999 5.43749 40.4037 5.42358 40.6303C5.41805 40.7626 5.41087 40.8886 5.40597 40.9744C5.40266 41.0326 5.40039 41.0723 5.40039 41.0833C5.40039 41.106 5.4143 41.2419 5.43285 41.3778L5.46531 41.627L43.3754 41.6496V40.1772C43.3754 40.1636 34.8474 40.15 24.4273 40.141C11.8231 40.1364 5.47459 40.1455 5.46068 40.1772Z" fill="#202020"/>
</svg>
