<svg width="50" height="49" viewBox="0 0 50 49" fill="none" xmlns="http://www.w3.org/2000/svg">
<path fill-rule="evenodd" clip-rule="evenodd" d="M24.2228 7.48552C24.1718 7.56254 24.0512 7.66221 23.9538 7.71205C23.8611 7.76188 23.7219 7.85249 23.6477 7.91138C23.5736 7.97481 23.5179 8.04277 23.5225 8.06089C23.5225 8.07901 23.453 8.13791 23.3695 8.18774C23.2814 8.23758 23.1005 8.36896 22.9661 8.48222C22.8316 8.59548 22.6368 8.77217 22.5348 8.8809C22.4281 8.9851 22.3215 9.07571 22.2983 9.07571C22.2751 9.07571 22.2055 9.11648 22.1453 9.16179C22.0896 9.21162 22.0432 9.27052 22.0432 9.2977C22.0432 9.32488 22.0154 9.34301 21.983 9.34301C21.9551 9.34301 21.7928 9.46533 21.6259 9.61483C21.4589 9.76434 21.3013 9.89119 21.2781 9.89119C21.2549 9.89119 21.1621 9.97274 21.0787 10.0679C20.9998 10.1675 20.8978 10.2491 20.8607 10.2491C20.8236 10.2491 20.7819 10.2808 20.768 10.3171C20.7541 10.3533 20.717 10.385 20.6845 10.385C20.6567 10.385 20.5871 10.4258 20.5361 10.4756C20.5155 10.4939 20.4835 10.5233 20.4463 10.5575L20.4462 10.5577L20.4462 10.5577L20.4461 10.5578L20.446 10.5579L20.4457 10.5581L20.4457 10.5581L20.4454 10.5584C20.3907 10.6087 20.3249 10.6692 20.2671 10.7203C20.1744 10.8109 20.0956 10.8743 20.0956 10.8607C20.0956 10.8471 20.0167 10.9151 19.9193 11.0057C19.8266 11.1008 19.6736 11.2367 19.5855 11.3137C19.4973 11.3862 19.3675 11.4723 19.2933 11.504C19.2237 11.5357 19.1727 11.581 19.1774 11.6037C19.1867 11.6263 19.0058 11.794 18.7786 11.9752C18.556 12.1609 18.2824 12.3648 18.1804 12.4328C18.0737 12.5053 18.0088 12.5596 18.032 12.5596C18.0551 12.5551 18.0459 12.5868 18.0088 12.6276C17.9717 12.6684 17.9067 12.6955 17.8697 12.6955C17.8326 12.691 17.7444 12.7635 17.6702 12.8541C17.6007 12.9402 17.5126 13.0127 17.4755 13.0127C17.4384 13.0127 17.3642 13.0761 17.3132 13.1486C17.2622 13.2211 17.1972 13.2845 17.1741 13.2845C17.1462 13.2845 17.0999 13.3026 17.0674 13.3298C17.0396 13.3524 16.9561 13.4204 16.8912 13.4748C16.8216 13.5337 16.6871 13.6424 16.5898 13.7149C16.4924 13.7874 16.3486 13.9188 16.2744 13.9958C16.1956 14.0773 16.1121 14.1453 16.0843 14.1453C16.0565 14.1453 15.9637 14.2268 15.8756 14.3265C15.7875 14.4262 15.6947 14.5077 15.6669 14.5077C15.6391 14.5077 15.5417 14.5711 15.449 14.6527C15.3562 14.7342 15.2217 14.852 15.1475 14.9155C15.078 14.9789 14.9852 15.0468 14.9435 15.074C14.9018 15.1012 14.758 15.2099 14.6235 15.3232C14.489 15.4365 14.3314 15.5678 14.2711 15.6177L14.1598 15.7083L14.1412 18.3812C16.4738 18.3631 17.1787 18.3722 17.2065 18.3903C17.2529 18.4175 17.2668 19.2964 17.2761 22.2684L17.29 26.1102C28.2712 26.1057 31.4802 26.0966 31.5034 26.083C31.5358 26.0694 31.5497 24.742 31.5497 22.2457C31.5497 20.1436 31.5637 18.4175 31.5776 18.4039C31.5915 18.3903 31.8141 18.3767 32.0738 18.3722C32.3334 18.3722 32.7647 18.3677 33.0337 18.3631C33.1638 18.3631 33.3406 18.3621 33.5232 18.361C33.7179 18.3598 33.9191 18.3586 34.0771 18.3586C34.3831 18.3541 34.6382 18.3495 34.6475 18.345C34.6567 18.3405 34.666 17.7606 34.6707 17.0629L34.6799 15.7853C34.3553 15.4727 34.1976 15.3504 34.1235 15.3096C34.0493 15.2688 33.8081 15.0695 33.5902 14.8656C33.3722 14.6617 33.1125 14.4443 33.0059 14.3763C32.9038 14.3129 32.7183 14.1634 32.6024 14.0456C32.4818 13.9233 32.352 13.8281 32.3149 13.8281C32.2778 13.8281 32.1804 13.7466 32.1062 13.6469C32.032 13.5473 31.9578 13.4748 31.9439 13.4884C31.93 13.502 31.8558 13.4476 31.7816 13.3751C31.7074 13.3026 31.6425 13.2528 31.6425 13.2754C31.6471 13.2936 31.6054 13.2528 31.5497 13.1848C31.4987 13.1123 31.4245 13.058 31.3874 13.058C31.3503 13.058 31.2715 12.9945 31.2159 12.9221C31.1556 12.845 31.0953 12.7861 31.0767 12.7861C31.0535 12.7861 30.9747 12.7363 30.9005 12.6729C30.8263 12.6095 30.7753 12.5506 30.7939 12.537C30.8078 12.5234 30.7939 12.5143 30.7568 12.5143C30.7197 12.5143 30.6362 12.46 30.5713 12.392C30.5063 12.3195 30.3626 12.1927 30.2513 12.1066C30.14 12.0205 29.9777 11.8801 29.8849 11.7985C29.7922 11.717 29.667 11.6218 29.6021 11.5856C29.5371 11.5539 29.4305 11.4633 29.3609 11.3862C29.2867 11.3092 29.2033 11.2458 29.1754 11.2458C29.143 11.2503 29.0409 11.1688 28.9528 11.0646C28.8647 10.9649 28.7766 10.8834 28.7581 10.8834C28.7349 10.8834 28.6607 10.8381 28.5819 10.7837C28.5077 10.7248 28.4566 10.6659 28.4659 10.6478C28.4798 10.6251 28.4752 10.6115 28.4566 10.6115C28.4335 10.6161 28.3685 10.5662 28.3036 10.5073C28.2387 10.453 28.0439 10.2989 27.8631 10.1721C27.6822 10.0407 27.5106 9.89572 27.4828 9.84588C27.4503 9.79152 27.2927 9.6692 27.135 9.57406C26.9727 9.47439 26.7687 9.30676 26.6806 9.20256C26.5924 9.09383 26.4255 8.94886 26.3096 8.87637C26.1936 8.80841 26.0267 8.67703 25.9386 8.59095C25.8505 8.50487 25.7345 8.39161 25.6835 8.34631C25.6325 8.29647 25.563 8.26023 25.5351 8.2557C25.5027 8.2557 25.447 8.21492 25.4192 8.16962C25.3867 8.12432 25.2152 7.97934 25.0343 7.85249C24.8535 7.72111 24.7143 7.59878 24.7236 7.57613C24.7282 7.54895 24.719 7.53989 24.7004 7.55348C24.6772 7.56254 24.6123 7.52177 24.5474 7.45834C24.4825 7.39944 24.4083 7.34961 24.3758 7.34961C24.348 7.34961 24.2784 7.41304 24.2228 7.48552ZM24.1121 9.54754C24.011 9.63745 23.8738 9.75939 23.7915 9.82777C23.6987 9.90932 23.5967 9.97727 23.5735 9.97727C23.5504 9.97727 23.4901 10.0226 23.4483 10.0815C23.402 10.1404 23.3278 10.2038 23.286 10.231C23.2443 10.2536 23.0866 10.385 22.9336 10.5209C22.7806 10.6568 22.558 10.8426 22.4374 10.9287C22.3168 11.0147 22.0989 11.196 21.9551 11.3273C21.8114 11.4587 21.6583 11.5765 21.6166 11.5856C21.5702 11.5992 21.5424 11.6264 21.5563 11.6535C21.5702 11.6762 21.5656 11.6988 21.547 11.6988C21.5238 11.6943 21.4265 11.7713 21.3244 11.8619C21.2224 11.9525 21.0184 12.1021 20.8746 12.2017C20.7262 12.2969 20.5778 12.4192 20.55 12.4645C20.5175 12.5143 20.3321 12.6684 20.1419 12.8088C19.9518 12.9538 19.7895 13.0806 19.7848 13.0987C19.7802 13.1123 19.6086 13.2618 19.4046 13.4295C19.1959 13.6016 19.029 13.724 19.029 13.7013C19.029 13.6832 18.9965 13.7149 18.9501 13.7693C18.9038 13.8236 18.8527 13.8689 18.8342 13.8735C18.811 13.8735 18.7136 13.9595 18.6116 14.0637C18.5096 14.1725 18.4261 14.2359 18.4261 14.2132C18.4261 14.1861 18.3937 14.2132 18.3473 14.2676C18.3009 14.322 18.236 14.3673 18.2082 14.3718C18.1757 14.3718 18.0783 14.4534 17.9995 14.553C17.916 14.6527 17.8233 14.7342 17.8001 14.7342C17.7769 14.7388 17.596 14.8702 17.4059 15.0287C17.3596 15.0673 17.3112 15.1078 17.2631 15.1479C17.1137 15.2727 16.9682 15.3941 16.9051 15.4455C16.817 15.5135 16.65 15.6675 16.5341 15.7853C16.4135 15.9031 16.2883 15.9982 16.2605 16.0028C16.228 16.0028 16.1167 16.0753 16.0147 16.1613C15.9127 16.2474 15.8431 16.3199 15.8663 16.3244C15.8849 16.3244 15.8524 16.3425 15.7968 16.3697C15.7365 16.3924 15.6669 16.4558 15.6391 16.5102C15.6113 16.5691 15.5974 16.6642 15.6113 16.7276C15.6252 16.7911 15.6762 16.85 15.7226 16.8635C15.7689 16.8771 16.4784 16.8907 17.2992 16.8862H18.7971C18.8017 19.5909 18.8064 21.3124 18.811 22.4586L18.8203 24.5381C19.0243 24.6378 20.2486 24.6514 24.4314 24.6514C29.078 24.6514 29.8246 24.6423 29.9174 24.588L30.0194 24.52L29.9962 16.9089C30.3208 16.9043 30.9791 16.9043 31.6653 16.9043H31.6657C32.5978 16.9089 32.9456 16.8953 33.0337 16.85C33.1218 16.8092 33.1542 16.7548 33.1635 16.6234C33.1682 16.4966 33.1542 16.4513 33.094 16.4332C33.0476 16.4241 32.9641 16.3516 32.9085 16.2746C32.8482 16.2021 32.774 16.1387 32.7462 16.1387C32.7137 16.1387 32.6256 16.0753 32.5467 16.0028C32.4726 15.9303 32.3288 15.8034 32.236 15.7219C32.1912 15.6825 32.1399 15.6378 32.0931 15.597C32.043 15.5534 31.9981 15.5142 31.9717 15.4908C31.9618 15.4836 31.9524 15.4766 31.9436 15.4701C31.9026 15.4399 31.8743 15.4191 31.8743 15.4229C31.8697 15.4319 31.7909 15.3685 31.6981 15.287C31.6054 15.2009 31.4245 15.0423 31.2947 14.9336C31.1695 14.8248 31.0396 14.7342 31.0164 14.7342C30.9932 14.7342 30.8959 14.6663 30.8078 14.5893C30.7196 14.5077 30.6501 14.4262 30.6594 14.408C30.664 14.3899 30.6362 14.3718 30.5991 14.3718C30.562 14.3718 30.5202 14.3401 30.5063 14.3038C30.4924 14.2676 30.46 14.2359 30.4368 14.2359C30.4136 14.2359 30.3394 14.1725 30.2745 14.1C30.2095 14.0275 30.1307 13.9641 30.1029 13.9641C30.0704 13.9595 29.9962 13.9188 29.9406 13.8735C29.8803 13.8236 29.8339 13.7647 29.8339 13.7375C29.8339 13.7104 29.8107 13.6922 29.7875 13.6922C29.7644 13.6922 29.6252 13.588 29.4861 13.4657C29.347 13.3389 29.1754 13.2029 29.1059 13.1622C29.0317 13.1169 28.9389 13.0353 28.8972 12.981C28.8462 12.9175 28.7905 12.8903 28.7581 12.9085C28.7179 12.9326 28.7101 12.9251 28.7349 12.8858C28.7534 12.8541 28.7256 12.8088 28.6514 12.7726C28.5865 12.7454 28.5355 12.7046 28.5355 12.6819C28.5355 12.6638 28.5123 12.6502 28.4891 12.6502C28.4659 12.6502 28.4103 12.6185 28.3732 12.5823C28.3361 12.546 28.3175 12.5143 28.3407 12.5143C28.3593 12.5098 28.3036 12.4826 28.2248 12.4464C28.1413 12.4101 28.0625 12.3376 28.0486 12.2878C28.0346 12.2334 27.9883 12.1972 27.9326 12.1972C27.8816 12.1972 27.8028 12.1428 27.761 12.0749C27.7147 12.0114 27.5616 11.8619 27.4179 11.7487C27.2741 11.6354 27.0979 11.4995 27.0237 11.4497C26.9541 11.3998 26.8521 11.3183 26.7965 11.2684C26.7455 11.2186 26.6898 11.1824 26.6713 11.1869C26.6481 11.196 26.6388 11.1778 26.6481 11.1507C26.6527 11.1235 26.5832 11.06 26.495 11.0147C26.4069 10.9649 26.3096 10.8879 26.2817 10.8471C26.2539 10.8063 26.1333 10.7067 26.0174 10.6342C25.8968 10.5617 25.7995 10.4711 25.7995 10.4394C25.7995 10.4122 25.7392 10.3533 25.6603 10.3171C25.5861 10.2808 25.5073 10.2219 25.4888 10.1902C25.4656 10.1585 25.396 10.0996 25.3264 10.0543C25.2522 10.0135 25.1502 9.94103 25.0946 9.89572C25.0436 9.85495 24.9601 9.78246 24.9091 9.73716C24.8627 9.69638 24.7746 9.6239 24.7097 9.57859C24.6448 9.53782 24.603 9.49251 24.6169 9.47892C24.6262 9.46533 24.603 9.43362 24.5567 9.40191C24.5149 9.37019 24.4454 9.34754 24.4083 9.34754C24.3712 9.34754 24.2552 9.42003 24.1486 9.51517C24.1371 9.52533 24.1249 9.53618 24.1121 9.54754Z" fill="#0B448E"/>
<path d="M36.4375 21.5435C36.4282 21.5616 35.6909 21.5707 34.7959 21.5616L33.1728 21.5526V22.9796C35.1668 22.9796 35.7141 22.9978 35.7697 23.025C35.8207 23.0476 35.8717 23.1337 35.8856 23.2062C35.8995 23.2787 35.9413 23.3511 35.9784 23.3647C36.0155 23.3783 36.0479 23.4282 36.0479 23.478C36.0479 23.5278 36.0897 23.623 36.1407 23.6909C36.1963 23.7634 36.2334 23.8495 36.2334 23.8857C36.2288 23.922 36.2613 23.9809 36.303 24.0081C36.3401 24.0398 36.3679 24.0805 36.3679 24.0987C36.3633 24.1213 36.3633 24.1712 36.3679 24.2119C36.3679 24.2572 36.4143 24.3297 36.4607 24.3705C36.5117 24.4158 36.558 24.4928 36.5673 24.5427C36.572 24.5925 36.6091 24.6604 36.6415 24.6876C36.6693 24.7193 36.6879 24.7692 36.674 24.7918C36.6601 24.8145 36.7064 24.9232 36.776 25.0274C36.8456 25.1361 36.9058 25.263 36.9105 25.3128C36.9151 25.3627 36.9429 25.4533 36.9754 25.5167C37.0079 25.5801 37.0496 25.639 37.0681 25.6526C37.0821 25.6662 37.1284 25.7477 37.1702 25.8338C37.2119 25.9199 37.2583 26.0422 37.2815 26.1057C37.3 26.1691 37.3557 26.2597 37.402 26.3095C37.4484 26.3594 37.4855 26.4364 37.4855 26.4771C37.4855 26.5225 37.5087 26.5678 37.5319 26.5814C37.5551 26.5949 37.5783 26.6448 37.5783 26.6946C37.5783 26.7444 37.6246 26.8713 37.6849 26.971C37.7406 27.0752 37.8008 27.1658 37.824 27.1748C37.8426 27.1839 37.8565 27.2337 37.8565 27.2836C37.8565 27.3334 37.9075 27.4693 37.9724 27.5871C38.0373 27.7094 38.0884 27.8272 38.0884 27.8499C38.0837 27.8725 38.1162 27.9224 38.1579 27.9495C38.195 27.9813 38.2182 28.022 38.2043 28.0402C38.195 28.0628 38.2368 28.1489 38.297 28.235C38.362 28.321 38.413 28.4207 38.413 28.4479C38.413 28.4796 38.464 28.6155 38.5289 28.7424C38.5938 28.8738 38.6866 29.0459 38.7329 29.1184C38.784 29.1909 38.8257 29.2906 38.8257 29.3313C38.8303 29.3766 38.8767 29.499 38.9277 29.6032C38.9834 29.7119 39.0483 29.807 39.0715 29.8206C39.09 29.8342 39.1178 29.884 39.1271 29.9339C39.141 29.9837 39.1503 30.0517 39.1503 30.0789C39.1549 30.1106 39.1828 30.1649 39.2152 30.1921C39.2523 30.2238 39.3312 30.3507 39.3961 30.4775C39.461 30.5999 39.5259 30.7675 39.5491 30.84C39.5677 30.9125 39.6187 31.0257 39.6697 31.0891C39.7161 31.1526 39.7671 31.2658 39.781 31.3383C39.7949 31.4108 39.8505 31.5286 39.8969 31.5966C39.9479 31.669 39.9897 31.7642 39.9897 31.814C39.9897 31.8638 40.0268 31.9409 40.0731 31.9816C40.1195 32.0269 40.1705 32.1085 40.1891 32.1629C40.2076 32.2263 40.2586 32.2671 40.3143 32.2671C40.3653 32.2671 40.4163 32.2897 40.4302 32.3124C40.4441 32.3395 40.9635 32.3577 41.8585 32.3531C42.6283 32.3531 43.2868 32.3395 43.3193 32.3305C43.361 32.3169 43.3749 32.1266 43.3749 31.5875V30.8626C41.5432 30.8626 41.3391 30.849 41.2556 30.7947C41.1954 30.7584 41.1397 30.6633 41.1258 30.5908C41.1119 30.5183 41.0794 30.4549 41.047 30.4549C41.0191 30.4549 41.0099 30.4413 41.0238 30.4186C41.0423 30.4005 41.0284 30.3597 40.996 30.328C40.9681 30.2963 40.9542 30.2691 40.9774 30.2737C40.996 30.2737 40.9681 30.2329 40.9171 30.1831C40.8661 30.1332 40.8336 30.0653 40.8429 30.0336C40.8522 30.0064 40.8244 29.9158 40.7826 29.8387C40.7618 29.798 40.7351 29.7447 40.7084 29.6915C40.6818 29.6383 40.6551 29.585 40.6342 29.5443C40.5925 29.4582 40.4951 29.2498 40.4256 29.0776C40.3514 28.91 40.2772 28.7605 40.2586 28.7514C40.2354 28.7424 40.1705 28.6291 40.1056 28.5068C40.0407 28.3799 39.9989 28.2576 40.0128 28.235C40.0268 28.2123 40.0128 28.1897 39.9897 28.1897C39.9665 28.1897 39.9526 28.167 39.9665 28.1444C39.9804 28.1217 39.9572 28.0855 39.9155 28.0628C39.8784 28.0447 39.8227 27.9586 39.7995 27.8725C39.7921 27.8496 39.7844 27.8253 39.7767 27.8014L39.7767 27.8013C39.7557 27.7356 39.7355 27.6726 39.7253 27.646C39.7068 27.6098 39.6929 27.569 39.6929 27.5554C39.6882 27.5418 39.6558 27.4648 39.6187 27.3832C39.5816 27.3017 39.5352 27.2337 39.5167 27.2383C39.4935 27.2383 39.4888 27.2066 39.5027 27.1703C39.5167 27.1341 39.4842 27.0616 39.4332 27.0117C39.3822 26.9619 39.3404 26.8804 39.3404 26.8305C39.3404 26.7807 39.3172 26.7399 39.2941 26.7399C39.2709 26.7399 39.257 26.7173 39.2709 26.6946C39.2848 26.672 39.2616 26.6176 39.2245 26.5814C39.1874 26.5451 39.1689 26.5134 39.192 26.5134C39.2106 26.5179 39.2013 26.4907 39.1735 26.459C39.1457 26.4273 39.1086 26.3458 39.09 26.2733C39.0761 26.2053 39.039 26.151 39.0158 26.151C38.9926 26.151 38.9694 26.1147 38.9694 26.0694C38.9694 26.0286 38.9277 25.9426 38.8767 25.8791C38.8257 25.8157 38.784 25.7296 38.784 25.6843C38.784 25.6435 38.7329 25.5122 38.6727 25.3898C38.6678 25.3803 38.6627 25.3703 38.6573 25.36C38.6503 25.3463 38.6429 25.3319 38.6352 25.3171C38.5774 25.2047 38.5054 25.065 38.464 24.973C38.4083 24.8598 38.348 24.7375 38.3249 24.7012C38.3017 24.665 38.2275 24.5291 38.1626 24.4067C38.0976 24.2799 38.0605 24.1666 38.0744 24.144C38.093 24.1259 38.0837 24.1123 38.0605 24.1123C38.0373 24.1123 37.9771 23.999 37.9261 23.8586C37.875 23.7181 37.8055 23.5958 37.7777 23.5867C37.7452 23.5777 37.7174 23.5369 37.7174 23.5006C37.7174 23.4644 37.6803 23.3647 37.6339 23.2832C37.5875 23.2062 37.5551 23.1156 37.5597 23.0929C37.569 23.0703 37.5133 22.9434 37.4391 22.8211C37.3649 22.6942 37.2676 22.5221 37.2258 22.436C37.1841 22.3499 37.1284 22.2367 37.1006 22.1868L37.0912 22.17C37.0624 22.1184 37.0184 22.0398 36.9893 21.9829C36.9569 21.9195 36.9198 21.8063 36.9058 21.7338C36.8873 21.6613 36.8548 21.5752 36.8316 21.5526C36.8038 21.5299 36.7111 21.5073 36.623 21.5073C36.5302 21.5073 36.4467 21.5208 36.4375 21.539V21.5435Z" fill="#0B448E"/>
<path d="M11.9895 21.6341C12.0684 21.5933 12.5182 21.5752 13.7193 21.5661C14.6143 21.5616 15.4072 21.5571 15.6391 21.548L15.6437 22.9842H14.3685C13.1535 22.9842 13.0886 22.9887 13.0005 23.0748C12.9495 23.1246 12.9077 23.1971 12.9077 23.2334C12.9077 23.2696 12.8938 23.3013 12.8753 23.3013C12.8521 23.3013 12.8335 23.3466 12.8289 23.401C12.8242 23.4599 12.7732 23.5595 12.7222 23.6275C12.6712 23.7 12.6156 23.8178 12.597 23.8948C12.5738 23.9763 12.5321 24.0488 12.5043 24.0534C12.4718 24.0624 12.444 24.1123 12.444 24.1621C12.444 24.2119 12.4208 24.298 12.3883 24.3524C12.3605 24.4113 12.3095 24.4838 12.2724 24.5109C12.2399 24.5427 12.2214 24.5925 12.2353 24.6151C12.2492 24.6378 12.1982 24.7782 12.1287 24.9187C12.0545 25.0637 11.9478 25.2811 11.8875 25.408C11.8226 25.5303 11.7484 25.6617 11.7159 25.6889C11.6835 25.7206 11.6232 25.861 11.5861 25.9969C11.549 26.1328 11.4841 26.2552 11.447 26.2687C11.4099 26.2823 11.3774 26.305 11.3774 26.3231C11.3774 26.3458 11.3449 26.4409 11.2986 26.5406C11.2522 26.6402 11.2151 26.7444 11.2151 26.7671C11.2151 26.7898 11.1826 26.8804 11.1455 26.9619C11.1084 27.0435 11.0574 27.1069 11.0296 27.1069C11.0018 27.1069 10.9971 27.1159 11.0203 27.1295C11.0389 27.1431 11.0018 27.2292 10.9369 27.3198C10.8719 27.415 10.8163 27.5327 10.8209 27.5826C10.8209 27.6324 10.756 27.7638 10.6818 27.8771C10.603 27.9903 10.5102 28.1806 10.4731 28.3075C10.4407 28.4298 10.3665 28.5793 10.3155 28.6336C10.2598 28.6925 10.2274 28.7696 10.2413 28.8058C10.2552 28.842 10.2459 28.8738 10.2181 28.8738C10.1903 28.8738 10.1717 28.9055 10.1717 28.9417C10.1717 28.978 10.1532 29.0097 10.1253 29.0097C10.0975 29.0097 10.0697 29.0912 10.0558 29.1909C10.0419 29.2906 9.99085 29.4083 9.94447 29.4491C9.89346 29.4944 9.84245 29.5941 9.82854 29.6666C9.81463 29.7391 9.78217 29.807 9.75434 29.8116C9.73116 29.8206 9.70797 29.8659 9.70797 29.9158C9.70797 29.9656 9.68942 30.0064 9.6616 30.0064C9.63377 30.0064 9.60595 30.0426 9.59204 30.0834C9.5791 30.1255 9.56216 30.2029 9.54866 30.2645L9.54566 30.2782C9.53175 30.3416 9.46219 30.4775 9.38336 30.5817C9.30916 30.6905 9.25351 30.8083 9.26743 30.8445C9.28134 30.8807 9.27206 30.9125 9.24424 30.9125C9.21642 30.9125 9.20714 30.9351 9.22105 30.9578C9.23496 30.9804 9.23033 31.0031 9.21178 31.0031C9.18859 31.0031 9.13758 31.0756 9.09584 31.1707C9.05411 31.2658 8.99846 31.4153 8.97064 31.5014C8.94745 31.5875 8.8918 31.6736 8.8547 31.6917C8.81297 31.7143 8.78051 31.7642 8.78051 31.805C8.78051 31.8503 8.73877 31.9726 8.68776 32.0768C8.63675 32.1855 8.55328 32.2942 8.50227 32.3169C8.44662 32.3441 7.82058 32.3622 6.92558 32.3622C5.96566 32.3622 5.44164 32.3441 5.44164 32.3169V30.9215C5.44164 30.849 5.51584 30.8445 7.45887 30.8672L7.59799 30.7312C7.67219 30.6588 7.7232 30.5817 7.70465 30.5636C7.6861 30.541 7.71392 30.4503 7.7603 30.3552C7.81131 30.2646 7.87159 30.1876 7.89942 30.1876C7.92724 30.1876 7.9597 30.1423 7.97361 30.0834C7.99216 30.029 8.01071 29.9339 8.01999 29.8705C8.02462 29.807 8.05245 29.7481 8.071 29.7345C8.09418 29.7209 8.15911 29.6394 8.21475 29.5533C8.2704 29.4672 8.31678 29.3404 8.31678 29.2679C8.31678 29.1999 8.33532 29.1456 8.36315 29.1456C8.39097 29.1456 8.40488 29.132 8.40025 29.1093C8.39561 29.0912 8.4188 29.0142 8.45126 28.9417C8.48372 28.8692 8.53937 28.7831 8.57647 28.7605C8.61356 28.7378 8.65066 28.6427 8.65994 28.5566C8.67385 28.4705 8.71095 28.3845 8.74341 28.3663C8.77587 28.3482 8.80833 28.312 8.81761 28.2848C8.82224 28.2621 8.82688 28.2304 8.82688 28.2168C8.82688 28.2088 8.8301 28.1977 8.8337 28.1852C8.8362 28.1765 8.83889 28.1672 8.84079 28.1579C8.85007 28.1398 8.8918 28.0492 8.93354 27.9541C8.97991 27.8635 9.01237 27.7729 9.01237 27.7502C9.01701 27.7321 9.04947 27.6958 9.09121 27.6732C9.12831 27.6505 9.1654 27.5871 9.17004 27.5373C9.17932 27.4874 9.19787 27.4014 9.21178 27.3425C9.23033 27.2881 9.26279 27.2428 9.29061 27.2428C9.31844 27.2428 9.32771 27.2201 9.3138 27.1975C9.29989 27.1748 9.30916 27.1431 9.33699 27.1295C9.36481 27.1159 9.37408 27.0842 9.36017 27.0616C9.34626 27.0389 9.36945 27.0072 9.40655 26.9936C9.44364 26.98 9.47611 26.9302 9.47611 26.8804C9.47611 26.8305 9.5132 26.7173 9.55958 26.6312C9.60131 26.5406 9.65232 26.4726 9.67551 26.4726C9.69406 26.4726 9.6987 26.45 9.68478 26.4273C9.67087 26.4047 9.67551 26.382 9.6987 26.382C9.71725 26.382 9.75898 26.2959 9.79608 26.1917C9.82854 26.083 9.8981 25.9426 9.94447 25.8701C9.99548 25.8021 10.0233 25.7477 10.0094 25.7477C9.99548 25.7477 10.0279 25.6843 10.079 25.6118C10.13 25.5393 10.1717 25.4487 10.1717 25.417C10.1717 25.3898 10.2042 25.2811 10.2459 25.1814C10.2876 25.0818 10.3526 24.964 10.3943 24.9187C10.4407 24.8734 10.4592 24.8371 10.4407 24.8417C10.4175 24.8417 10.4546 24.7692 10.5195 24.6831C10.5844 24.597 10.6262 24.5019 10.6122 24.4792C10.5983 24.4566 10.6076 24.4249 10.6354 24.4113C10.6633 24.3977 10.6818 24.3524 10.6818 24.3071C10.6818 24.2663 10.7282 24.1893 10.7792 24.1394C10.8302 24.0896 10.8812 23.9763 10.8951 23.8903C10.9044 23.8042 10.9415 23.7181 10.974 23.7C11.0064 23.6819 11.0342 23.623 11.0435 23.5731C11.0482 23.5233 11.1038 23.41 11.1687 23.324C11.2336 23.2379 11.2754 23.1337 11.2615 23.0974C11.2476 23.0612 11.28 22.9887 11.331 22.9389C11.382 22.889 11.447 22.7667 11.4748 22.667C11.498 22.5674 11.549 22.4858 11.5768 22.4858C11.6093 22.4858 11.6185 22.4722 11.6 22.4541C11.5768 22.4315 11.5907 22.3907 11.6232 22.359C11.651 22.3273 11.6603 22.3001 11.6325 22.3046C11.6046 22.3046 11.6232 22.282 11.6742 22.2502C11.7206 22.2185 11.7623 22.1506 11.7669 22.1007C11.7716 22.0509 11.804 21.9376 11.8319 21.8516C11.8597 21.7655 11.9339 21.6658 11.9895 21.6341Z" fill="#0B448E"/>
<path d="M33.8498 26.7173C33.7571 26.7444 33.6922 26.7852 33.7154 26.8033C33.7339 26.8215 33.7015 26.8396 33.6365 26.8396C33.5716 26.8396 33.4696 26.8486 33.4047 26.8622C33.3397 26.8713 33.2563 26.894 33.2192 26.9121C33.1995 26.9193 33.1785 26.9278 33.1611 26.9348L33.1609 26.9349L33.1601 26.9352L33.1541 26.9377C33.1511 26.9389 33.1482 26.94 33.1455 26.9411C33.1401 26.9433 33.1353 26.9451 33.1315 26.9465C33.1296 26.9472 33.1279 26.9479 33.1264 26.9483C33.1125 26.9528 33.0383 26.98 32.9641 27.0117C32.8899 27.0389 32.7972 27.0525 32.7647 27.0389C32.7369 27.0253 32.6859 27.048 32.6627 27.0842C32.6302 27.1295 32.6349 27.1839 32.672 27.2519C32.6998 27.3108 32.7183 27.3561 32.7137 27.3561C32.7091 27.3561 32.7137 27.3878 32.7276 27.424C32.7335 27.4471 32.7545 27.5144 32.7798 27.5954C32.7872 27.6191 32.7949 27.6439 32.8027 27.6691C32.8062 27.6803 32.8097 27.6916 32.8132 27.7029C32.8172 27.7157 32.8211 27.7284 32.825 27.7411C32.8667 27.8771 32.8899 28.0175 32.876 28.0447C32.8621 28.0764 32.8714 28.1036 32.8946 28.1036C32.9177 28.1036 32.9317 28.1353 32.9177 28.1715C32.9038 28.2078 32.9177 28.2486 32.9409 28.2621C32.9641 28.2757 32.978 28.3075 32.9641 28.3301C32.9502 28.3528 32.9641 28.3845 32.9873 28.3981C33.0105 28.4116 33.0244 28.4434 33.0105 28.466C32.9966 28.4887 33.029 28.6019 33.0801 28.7152C33.1311 28.8285 33.1774 28.9825 33.1821 29.055C33.1913 29.132 33.2099 29.1909 33.2284 29.1909C33.2516 29.1909 33.2563 29.2271 33.2424 29.2679C33.2285 29.3132 33.2424 29.363 33.2748 29.3812C33.3073 29.3993 33.3397 29.4718 33.3444 29.5397C33.3537 29.6077 33.4093 29.8206 33.4742 30.0064C33.5392 30.1921 33.5855 30.3688 33.5855 30.3915C33.5809 30.4141 33.5994 30.4911 33.6273 30.5591C33.6644 30.6452 33.669 30.7131 33.6365 30.7765C33.5902 30.8672 33.5438 30.8672 24.4871 30.8672C19.4834 30.8672 15.3423 30.849 15.282 30.8309C15.1846 30.8037 15.1754 30.7811 15.2032 30.618C15.2217 30.5183 15.2867 30.2329 15.3469 29.9837C15.4119 29.7345 15.4907 29.4808 15.5232 29.4174C15.5603 29.354 15.6252 29.1728 15.6623 29.0097C15.704 28.8466 15.7504 28.6427 15.7643 28.5566C15.7782 28.4705 15.8153 28.3709 15.8431 28.3392C15.8756 28.3074 15.8802 28.2803 15.8524 28.2803C15.8246 28.2848 15.8292 28.2667 15.8617 28.2486C15.8895 28.2304 15.9266 28.1262 15.9452 28.013C15.9637 27.8997 15.9823 27.8 15.9962 27.7864C16.0054 27.7729 16.024 27.723 16.0333 27.6732C16.0472 27.6234 16.0796 27.492 16.1075 27.3787C16.1353 27.2654 16.1446 27.1477 16.1307 27.1159C16.1167 27.0888 16.0657 27.0616 16.0147 27.0616C15.9637 27.0616 15.922 27.048 15.922 27.0253C15.922 27.0072 15.7921 26.9574 15.6345 26.9166C15.4722 26.8758 15.2681 26.826 15.18 26.8079C15.0919 26.7943 14.9992 26.7626 14.9713 26.7399C14.9435 26.7127 14.8739 26.7037 14.809 26.7082C14.7441 26.7173 14.6977 26.749 14.7024 26.7807C14.7116 26.8079 14.6977 26.8351 14.6699 26.8351C14.6421 26.8351 14.6328 26.8577 14.6467 26.8804C14.6606 26.903 14.656 26.9528 14.6374 26.98C14.6189 27.0117 14.6003 27.0888 14.6003 27.1522C14.5957 27.2156 14.5447 27.3606 14.489 27.4784C14.438 27.6007 14.4009 27.7185 14.4148 27.7411C14.4288 27.7638 14.4195 27.7955 14.3917 27.8091C14.3638 27.8227 14.3546 27.8635 14.3685 27.8997C14.3824 27.936 14.3731 27.9677 14.3453 27.9677C14.3175 27.9677 14.3082 27.9903 14.3221 28.013C14.336 28.0356 14.3128 28.1761 14.2757 28.3165C14.2386 28.4615 14.1783 28.5929 14.1505 28.6065C14.1181 28.6246 14.1041 28.6608 14.1227 28.688C14.1459 28.7152 14.1412 28.7469 14.1134 28.7605C14.0856 28.7741 14.0763 28.8149 14.0902 28.8511C14.1041 28.8873 14.0949 28.9191 14.067 28.9191C14.0392 28.9191 14.03 28.9417 14.0439 28.9644C14.0578 28.987 14.0485 29.0369 14.0207 29.064C13.9975 29.0957 13.965 29.2045 13.9511 29.3041C13.9326 29.4038 13.9094 29.508 13.8955 29.5307C13.8769 29.5533 13.863 29.6258 13.8584 29.6892C13.8537 29.7527 13.812 29.875 13.7703 29.9611C13.7239 30.0471 13.6775 30.2012 13.6682 30.3008C13.6543 30.4005 13.6265 30.4866 13.5987 30.4911C13.5755 30.5002 13.5662 30.5274 13.5801 30.55C13.594 30.5727 13.5848 30.6859 13.5569 30.7992C13.5291 30.9125 13.492 31.0031 13.4642 31.0031C13.4364 31.0031 13.4271 31.0257 13.441 31.0484C13.4549 31.071 13.4456 31.1027 13.4178 31.1163C13.39 31.1299 13.3807 31.1798 13.3946 31.2296C13.4086 31.2794 13.3993 31.3293 13.3715 31.3428C13.3436 31.3564 13.3344 31.3882 13.3483 31.4108C13.3622 31.4335 13.339 31.5059 13.3019 31.5694C13.2648 31.6328 13.2231 31.7596 13.2091 31.8503C13.1952 31.9454 13.1674 32.0451 13.1442 32.0677C13.121 32.0904 13.0932 32.1629 13.0839 32.2263L13.07 32.3395C13.7888 32.335 14.1273 32.3169 14.2896 32.2942C14.5122 32.258 14.5772 32.2625 14.5772 32.3033C14.5772 32.3486 14.7997 32.3622 15.5371 32.3622C16.0704 32.3622 16.5712 32.3395 16.65 32.3169C16.7521 32.2852 16.8123 32.2852 16.8263 32.3169C16.8402 32.3486 19.4834 32.3622 24.6169 32.3622C30.7521 32.3622 32.403 32.3486 32.4772 32.3033C32.5514 32.258 32.5792 32.2625 32.6256 32.3078C32.6581 32.3395 32.7323 32.3622 32.7879 32.3622C32.8482 32.3622 32.8946 32.3486 32.8946 32.326C32.8946 32.3078 33.1311 32.2988 33.4186 32.3033L33.4359 32.3039C33.7131 32.3127 33.9903 32.3216 34.0539 32.3305C34.1188 32.3395 34.1976 32.3305 34.2255 32.3078C34.2626 32.2897 34.3182 32.2942 34.36 32.326C34.4202 32.3758 34.4805 32.3713 34.6799 32.3169C34.8747 32.2625 34.9396 32.2625 34.9906 32.3033C35.0324 32.3441 35.1576 32.3577 35.3755 32.3441C35.4898 32.3384 35.5947 32.3308 35.6613 32.3261L35.6614 32.326C35.7001 32.3233 35.7258 32.3214 35.7326 32.3214C35.7558 32.3169 35.7372 32.2489 35.6955 32.1674C35.6538 32.0904 35.612 31.9409 35.5981 31.8412C35.5888 31.7415 35.5517 31.5966 35.5193 31.5241C35.4822 31.4516 35.4219 31.3021 35.3802 31.1933C35.3384 31.0891 35.2967 30.917 35.2874 30.8083C35.2781 30.7041 35.241 30.5274 35.2086 30.4141C35.1761 30.3008 35.1205 30.1695 35.088 30.1196C35.0556 30.0698 35.0231 29.9475 35.0185 29.8433C35.0092 29.7436 34.9767 29.6303 34.9443 29.5941C34.9118 29.5579 34.8747 29.4401 34.8654 29.3268C34.8515 29.2135 34.8098 29.0595 34.7773 28.987C34.7402 28.9145 34.6799 28.765 34.6382 28.6563C34.5965 28.5521 34.5547 28.3799 34.5454 28.2712C34.5362 28.167 34.4991 27.9903 34.4666 27.8771C34.4342 27.7638 34.3785 27.6324 34.346 27.5826C34.3136 27.5327 34.2811 27.4104 34.2672 27.3108C34.2579 27.2111 34.2162 27.0661 34.1745 26.9936C34.1327 26.9211 34.1049 26.8215 34.1049 26.7807C34.1095 26.7399 34.091 26.6946 34.0678 26.6856C34.0446 26.6765 33.9472 26.6901 33.8498 26.7173Z" fill="#0B448E"/>
<path d="M14.1134 35.6015C14.0949 35.5516 14.0856 35.4973 14.0949 35.4791C14.1088 35.461 14.2015 35.452 14.3128 35.4656C14.4195 35.4746 14.8183 35.4973 15.2032 35.5063C15.5835 35.5199 15.9823 35.5109 16.0843 35.4927C16.2095 35.4656 16.293 35.4701 16.3486 35.5018C16.4182 35.5471 16.4321 35.6558 16.4553 36.9606L14.1598 36.9379V36.5302C14.1598 36.3037 14.1412 36.0817 14.1134 36.0319C14.0856 35.9775 14.081 35.8914 14.1088 35.8144C14.1273 35.7464 14.132 35.6513 14.1134 35.6015Z" fill="#0B448E"/>
<path d="M29.0317 35.4746C28.5262 35.4882 28.4427 35.4973 28.4288 35.5607C28.4242 35.6015 28.4242 35.9322 28.4335 36.2992L28.4474 36.9606H30.7614C30.7614 36.4441 30.7428 36.3037 30.715 36.3037C30.6918 36.3037 30.6686 36.2629 30.6686 36.2131C30.6686 36.1632 30.6918 36.1134 30.715 36.0998C30.7382 36.0862 30.7614 35.9458 30.7614 35.7827C30.7614 35.5788 30.7428 35.4882 30.7011 35.4837C30.6733 35.4791 30.6362 35.4791 30.6223 35.4791C30.6183 35.4791 30.6087 35.4799 30.595 35.4809C30.5605 35.4836 30.4998 35.4882 30.4368 35.4882C30.3487 35.4927 30.1261 35.4927 29.9499 35.4791C29.769 35.4701 29.3609 35.4701 29.0317 35.4746Z" fill="#0B448E"/>
<path d="M9.38336 36.9379V35.4882L11.6788 35.5109V36.2221C11.6788 36.6163 11.6649 36.9379 11.6417 36.9379H9.38336Z" fill="#0B448E"/>
<path d="M18.9594 35.5199C18.9362 35.5426 18.9177 35.606 18.9177 35.6694C18.9177 35.689 18.9186 35.732 18.9198 35.7913C18.9225 35.9241 18.927 36.1389 18.927 36.3581L18.9362 36.9379H21.1621L21.1668 35.5562C20.9303 35.5018 20.4434 35.4882 19.9333 35.4882C19.4232 35.4882 18.9872 35.5018 18.9594 35.5199Z" fill="#0B448E"/>
<path d="M23.6153 36.2539C23.6106 35.8642 23.6246 35.5335 23.6431 35.5199C23.6617 35.5018 24.181 35.4927 24.7885 35.5018C25.563 35.5063 25.9061 35.5245 25.9293 35.5607C25.9479 35.5924 25.9571 35.9186 25.9339 36.9606H23.6199L23.6153 36.2539Z" fill="#0B448E"/>
<path d="M33.1728 36.9379L35.5146 36.9153C35.5378 36.1995 35.5193 35.9005 35.4822 35.7464L35.4219 35.4882H33.1728V36.9379Z" fill="#0B448E"/>
<path d="M37.9168 36.272C37.9121 35.905 37.9168 35.5788 37.9307 35.5471C37.9446 35.5018 38.1997 35.4882 40.2447 35.4882L40.2262 36.1995C40.2169 36.5936 40.2076 36.9198 40.203 36.9244C40.203 36.9289 39.6882 36.9334 37.9261 36.9425L37.9168 36.272Z" fill="#0B448E"/>
<path d="M5.46019 40.1772C5.45091 40.1999 5.437 40.4037 5.42309 40.6303C5.41756 40.7626 5.41038 40.8886 5.40548 40.9744C5.40217 41.0326 5.3999 41.0723 5.3999 41.0833C5.3999 41.106 5.41381 41.2419 5.43236 41.3778L5.46482 41.627L43.3749 41.6496V40.1772C43.3749 40.1636 34.8469 40.15 24.4268 40.141C11.8226 40.1364 5.4741 40.1455 5.46019 40.1772Z" fill="#0B448E"/>
</svg>
