<svg width="63" height="63" viewBox="0 0 63 63" fill="none" xmlns="http://www.w3.org/2000/svg">
<path d="M39.1175 41.2471C38.9115 41.2471 38.714 41.3289 38.5683 41.4746C38.4227 41.6202 38.3408 41.8178 38.3408 42.0238V43.193C38.3408 43.399 38.4227 43.5966 38.5683 43.7422C38.714 43.8879 38.9115 43.9697 39.1175 43.9697C39.3235 43.9697 39.5211 43.8879 39.6667 43.7422C39.8124 43.5966 39.8942 43.399 39.8942 43.193V42.0238C39.8942 41.8178 39.8124 41.6202 39.6667 41.4746C39.5211 41.3289 39.3235 41.2471 39.1175 41.2471Z" fill="#202020"/>
<path d="M10.9407 28.9113H13.2191C13.4251 28.9113 13.6227 28.8295 13.7683 28.6838C13.914 28.5382 13.9958 28.3406 13.9958 28.1346C13.9958 27.9286 13.914 27.7311 13.7683 27.5854C13.6227 27.4397 13.4251 27.3579 13.2191 27.3579H10.9407C9.76843 27.3579 8.81463 28.3376 8.81463 29.541V29.6104C8.81463 30.8148 9.76843 31.7935 10.9407 31.7935H11.8666C12.0239 31.8077 12.1701 31.8803 12.2766 31.9969C12.3831 32.1135 12.4422 32.2657 12.4422 32.4236C12.4422 32.5815 12.3831 32.7338 12.2766 32.8504C12.1701 32.967 12.0239 33.0395 11.8666 33.0538H9.58824C9.38224 33.0538 9.18468 33.1356 9.03902 33.2813C8.89336 33.427 8.81152 33.6245 8.81152 33.8305C8.81152 34.0365 8.89336 34.2341 9.03902 34.3797C9.18468 34.5254 9.38224 34.6072 9.58824 34.6072H11.8666C13.0389 34.6072 13.9927 33.6275 13.9927 32.4241C13.9927 31.2208 13.0389 30.24 11.8666 30.24H10.9407C10.7815 30.232 10.6319 30.1612 10.5246 30.0433C10.4173 29.9253 10.361 29.7697 10.3681 29.6104V29.541C10.361 29.3817 10.4173 29.2261 10.5246 29.1081C10.6319 28.9901 10.7815 28.9194 10.9407 28.9113Z" fill="#202020"/>
<path d="M24.6777 33.0538H21.8298V28.1346C21.8298 27.9286 21.748 27.7311 21.6023 27.5854C21.4566 27.4397 21.2591 27.3579 21.0531 27.3579C20.8471 27.3579 20.6495 27.4397 20.5039 27.5854C20.3582 27.7311 20.2764 27.9286 20.2764 28.1346V33.8305C20.2764 34.0365 20.3582 34.2341 20.5039 34.3797C20.6495 34.5254 20.8471 34.6072 21.0531 34.6072H24.6777C24.8837 34.6072 25.0813 34.5254 25.227 34.3797C25.3726 34.2341 25.4544 34.0365 25.4544 33.8305C25.4544 33.6245 25.3726 33.427 25.227 33.2813C25.0813 33.1356 24.8837 33.0538 24.6777 33.0538Z" fill="#202020"/>
<path d="M30.4141 28.9113C30.6201 28.9113 30.8176 28.8295 30.9633 28.6838C31.1089 28.5382 31.1908 28.3406 31.1908 28.1346C31.1908 27.9286 31.1089 27.7311 30.9633 27.5854C30.8176 27.4397 30.6201 27.3579 30.4141 27.3579H26.7894C26.5834 27.3579 26.3859 27.4397 26.2402 27.5854C26.0945 27.7311 26.0127 27.9286 26.0127 28.1346V33.8305C26.0127 34.0365 26.0945 34.2341 26.2402 34.3797C26.3859 34.5254 26.5834 34.6072 26.7894 34.6072H30.4141C30.6201 34.6072 30.8176 34.5254 30.9633 34.3797C31.1089 34.2341 31.1908 34.0365 31.1908 33.8305C31.1908 33.6245 31.1089 33.427 30.9633 33.2813C30.8176 33.1356 30.6201 33.0538 30.4141 33.0538H27.5661V31.7593H30.4141C30.6201 31.7593 30.8176 31.6774 30.9633 31.5318C31.1089 31.3861 31.1908 31.1886 31.1908 30.9826C31.1908 30.7766 31.1089 30.579 30.9633 30.4333C30.8176 30.2877 30.6201 30.2059 30.4141 30.2059H27.5661V28.9113H30.4141Z" fill="#202020"/>
<path d="M17.8603 27.8696C17.8059 27.7197 17.7066 27.5901 17.576 27.4986C17.4454 27.407 17.2897 27.3579 17.1302 27.3579C16.9707 27.3579 16.815 27.407 16.6844 27.4986C16.5538 27.5901 16.4545 27.7197 16.4001 27.8696L14.3289 33.5655C14.2941 33.6614 14.2785 33.7632 14.283 33.8651C14.2875 33.967 14.3121 34.067 14.3552 34.1594C14.3984 34.2518 14.4594 34.3349 14.5346 34.4037C14.6099 34.4726 14.698 34.5259 14.7939 34.5607C14.8897 34.5956 14.9915 34.6111 15.0934 34.6066C15.1953 34.6021 15.2954 34.5775 15.3878 34.5344C15.4802 34.4912 15.5632 34.4302 15.6321 34.355C15.7009 34.2797 15.7543 34.1916 15.7891 34.0958L16.106 33.2258H18.1555L18.4662 34.0958C18.501 34.1916 18.5543 34.2797 18.6232 34.355C18.692 34.4302 18.7751 34.4912 18.8675 34.5344C18.9599 34.5775 19.0599 34.6021 19.1618 34.6066C19.2637 34.6111 19.3655 34.5956 19.4614 34.5607C19.5573 34.5259 19.6453 34.4726 19.7206 34.4037C19.7959 34.3349 19.8568 34.2518 19.9 34.1594C19.9432 34.067 19.9677 33.967 19.9723 33.8651C19.9768 33.7632 19.9612 33.6614 19.9264 33.5655L17.8603 27.8696ZM16.6704 31.6724L17.1302 30.4079L17.59 31.6724H16.6704Z" fill="#202020"/>
<path d="M56.9714 48.8467H52.5587V28.1344L54.5139 29.2559C54.6324 29.3239 54.7668 29.3593 54.9034 29.3588C55.04 29.3582 55.174 29.3217 55.292 29.2528C55.41 29.1839 55.5077 29.0851 55.5752 28.9663C55.6428 28.8476 55.6779 28.7132 55.6769 28.5766V24.1068C55.6769 23.9701 55.6408 23.8357 55.5722 23.7173C55.5037 23.599 55.4051 23.5008 55.2865 23.4327L36.5791 12.7026C36.4613 12.6354 36.328 12.6001 36.1923 12.6001C36.0567 12.6001 35.9234 12.6354 35.8055 12.7026L19.7338 21.9196H7.05475C6.43674 21.9202 5.84423 22.166 5.40733 22.6031C4.97043 23.0402 4.72488 23.6328 4.72461 24.2508V37.7138C4.72516 38.3316 4.97083 38.924 5.4077 39.3609C5.84456 39.7977 6.43692 40.0434 7.05475 40.0439H17.152V48.8467H5.50132C5.29532 48.8467 5.09776 48.9285 4.9521 49.0742C4.80644 49.2198 4.72461 49.4174 4.72461 49.6234C4.72461 49.8294 4.80644 50.0269 4.9521 50.1726C5.09776 50.3183 5.29532 50.4001 5.50132 50.4001H56.9714C57.1774 50.4001 57.375 50.3183 57.5207 50.1726C57.6663 50.0269 57.7482 49.8294 57.7482 49.6234C57.7482 49.4174 57.6663 49.2198 57.5207 49.0742C57.375 48.9285 57.1774 48.8467 56.9714 48.8467ZM51.0053 48.8467H42.2305V35.5908C42.2305 35.3848 42.1486 35.1872 42.003 35.0416C41.8573 34.8959 41.6598 34.8141 41.4538 34.8141H35.2753V24.2508C35.2747 23.633 35.0291 23.0406 34.5922 22.6037C34.1553 22.1669 33.563 21.9212 32.9451 21.9207H30.6513L36.1928 18.7423L51.0021 27.2344L51.0053 48.8467ZM30.1542 40.0439V48.8467H22.8479V40.0439H30.1542ZM31.7076 40.0439H32.9451C33.563 40.0434 34.1553 39.7977 34.5922 39.3609C35.0291 38.924 35.2747 38.3316 35.2753 37.7138V36.3675H40.6771V48.8467H31.7076V40.0439ZM36.1928 14.2726L54.1235 24.5615V27.2417L36.5791 17.1734C36.4613 17.1062 36.328 17.0709 36.1923 17.0709C36.0567 17.0709 35.9234 17.1062 35.8055 17.1734L27.5289 21.9207H22.8562L36.1928 14.2726ZM6.27803 37.7138V24.2508C6.27803 24.0448 6.35987 23.8472 6.50553 23.7016C6.65119 23.5559 6.84875 23.4741 7.05475 23.4741H32.9451C33.1511 23.4741 33.3487 23.5559 33.4944 23.7016C33.64 23.8472 33.7219 24.0448 33.7219 24.2508V37.7138C33.7219 37.9198 33.64 38.1174 33.4944 38.263C33.3487 38.4087 33.1511 38.4905 32.9451 38.4905H7.05475C6.84875 38.4905 6.65119 38.4087 6.50553 38.263C6.35987 38.1174 6.27803 37.9198 6.27803 37.7138ZM18.7054 40.0439H21.2945V48.8467H18.7054V40.0439Z" fill="#202020"/>
</svg>
