<svg width="54" height="39" viewBox="0 0 54 39" fill="none" xmlns="http://www.w3.org/2000/svg">
<path d="M35.1185 29.2471C34.9125 29.2471 34.715 29.3289 34.5693 29.4746C34.4236 29.6202 34.3418 29.8178 34.3418 30.0238V31.193C34.3418 31.399 34.4236 31.5966 34.5693 31.7422C34.715 31.8879 34.9125 31.9697 35.1185 31.9697C35.3245 31.9697 35.5221 31.8879 35.6677 31.7422C35.8134 31.5966 35.8952 31.399 35.8952 31.193V30.0238C35.8952 29.8178 35.8134 29.6202 35.6677 29.4746C35.5221 29.3289 35.3245 29.2471 35.1185 29.2471Z" fill="#0B448E"/>
<path d="M6.93977 16.9113H9.21813C9.42413 16.9113 9.62169 16.8295 9.76735 16.6838C9.91301 16.5382 9.99484 16.3406 9.99484 16.1346C9.99484 15.9286 9.91301 15.7311 9.76735 15.5854C9.62169 15.4397 9.42413 15.3579 9.21813 15.3579H6.93977C5.76746 15.3579 4.81365 16.3376 4.81365 17.541V17.6104C4.81365 18.8148 5.76746 19.7935 6.93977 19.7935H7.86561C8.02289 19.8077 8.16914 19.8803 8.27564 19.9969C8.38214 20.1135 8.44119 20.2657 8.44119 20.4236C8.44119 20.5815 8.38214 20.7338 8.27564 20.8504C8.16914 20.967 8.02289 21.0395 7.86561 21.0538H5.58726C5.38126 21.0538 5.1837 21.1356 5.03804 21.2813C4.89238 21.427 4.81055 21.6245 4.81055 21.8305C4.81055 22.0365 4.89238 22.2341 5.03804 22.3797C5.1837 22.5254 5.38126 22.6072 5.58726 22.6072H7.86561C9.03793 22.6072 9.99173 21.6275 9.99173 20.4241C9.99173 19.2208 9.03793 18.24 7.86561 18.24H6.93977C6.78051 18.232 6.6309 18.1612 6.5236 18.0433C6.41631 17.9253 6.36004 17.7697 6.36708 17.6104V17.541C6.36004 17.3817 6.41631 17.2261 6.5236 17.1081C6.6309 16.9901 6.78051 16.9194 6.93977 16.9113Z" fill="#0B448E"/>
<path d="M20.6768 21.0538H17.8288V16.1346C17.8288 15.9286 17.747 15.7311 17.6013 15.5854C17.4557 15.4397 17.2581 15.3579 17.0521 15.3579C16.8461 15.3579 16.6485 15.4397 16.5029 15.5854C16.3572 15.7311 16.2754 15.9286 16.2754 16.1346V21.8305C16.2754 22.0365 16.3572 22.2341 16.5029 22.3797C16.6485 22.5254 16.8461 22.6072 17.0521 22.6072H20.6768C20.8828 22.6072 21.0803 22.5254 21.226 22.3797C21.3716 22.2341 21.4535 22.0365 21.4535 21.8305C21.4535 21.6245 21.3716 21.427 21.226 21.2813C21.0803 21.1356 20.8828 21.0538 20.6768 21.0538Z" fill="#0B448E"/>
<path d="M26.415 16.9113C26.621 16.9113 26.8186 16.8295 26.9643 16.6838C27.1099 16.5382 27.1918 16.3406 27.1918 16.1346C27.1918 15.9286 27.1099 15.7311 26.9643 15.5854C26.8186 15.4397 26.621 15.3579 26.415 15.3579H22.7904C22.5844 15.3579 22.3868 15.4397 22.2412 15.5854C22.0955 15.7311 22.0137 15.9286 22.0137 16.1346V21.8305C22.0137 22.0365 22.0955 22.2341 22.2412 22.3797C22.3868 22.5254 22.5844 22.6072 22.7904 22.6072H26.415C26.621 22.6072 26.8186 22.5254 26.9643 22.3797C27.1099 22.2341 27.1918 22.0365 27.1918 21.8305C27.1918 21.6245 27.1099 21.427 26.9643 21.2813C26.8186 21.1356 26.621 21.0538 26.415 21.0538H23.5671V19.7593H26.415C26.621 19.7593 26.8186 19.6774 26.9643 19.5318C27.1099 19.3861 27.1918 19.1886 27.1918 18.9826C27.1918 18.7766 27.1099 18.579 26.9643 18.4333C26.8186 18.2877 26.621 18.2059 26.415 18.2059H23.5671V16.9113H26.415Z" fill="#0B448E"/>
<path d="M13.8593 15.8696C13.8049 15.7197 13.7057 15.5901 13.575 15.4986C13.4444 15.407 13.2888 15.3579 13.1292 15.3579C12.9697 15.3579 12.8141 15.407 12.6834 15.4986C12.5528 15.5901 12.4536 15.7197 12.3991 15.8696L10.3279 21.5655C10.2931 21.6614 10.2775 21.7632 10.282 21.8651C10.2865 21.967 10.3111 22.067 10.3543 22.1594C10.3975 22.2518 10.4584 22.3349 10.5337 22.4037C10.6089 22.4726 10.697 22.5259 10.7929 22.5607C10.8888 22.5956 10.9906 22.6111 11.0925 22.6066C11.1944 22.6021 11.2944 22.5775 11.3868 22.5344C11.4792 22.4912 11.5622 22.4302 11.6311 22.355C11.6999 22.2797 11.7533 22.1916 11.7881 22.0958L12.105 21.2258H14.1545L14.4652 22.0958C14.5 22.1916 14.5534 22.2797 14.6222 22.355C14.6911 22.4302 14.7741 22.4912 14.8665 22.5344C14.9589 22.5775 15.0589 22.6021 15.1608 22.6066C15.2627 22.6111 15.3645 22.5956 15.4604 22.5607C15.5563 22.5259 15.6444 22.4726 15.7196 22.4037C15.7949 22.3349 15.8558 22.2518 15.899 22.1594C15.9422 22.067 15.9668 21.967 15.9713 21.8651C15.9758 21.7632 15.9602 21.6614 15.9254 21.5655L13.8593 15.8696ZM12.6694 19.6724L13.1292 18.4079L13.5891 19.6724H12.6694Z" fill="#0B448E"/>
<path d="M52.9714 36.8467H48.5587V16.1344L50.5139 17.2559C50.6324 17.3239 50.7668 17.3594 50.9034 17.3588C51.04 17.3582 51.174 17.3217 51.292 17.2528C51.41 17.1839 51.5077 17.0851 51.5752 16.9663C51.6428 16.8476 51.6779 16.7132 51.6769 16.5766V12.1068C51.6769 11.9701 51.6408 11.8357 51.5722 11.7173C51.5037 11.599 51.4051 11.5008 51.2865 11.4327L32.5791 0.702632C32.4613 0.635436 32.328 0.600098 32.1923 0.600098C32.0567 0.600098 31.9234 0.635436 31.8055 0.702632L15.7338 9.91962H3.05475C2.43674 9.92017 1.84423 10.166 1.40733 10.6031C0.970434 11.0402 0.724884 11.6328 0.724609 12.2508V25.7138C0.725158 26.3316 0.97083 26.924 1.4077 27.3609C1.84456 27.7977 2.43692 28.0434 3.05475 28.0439H13.152V36.8467H1.50132C1.29532 36.8467 1.09776 36.9285 0.952103 37.0742C0.806441 37.2198 0.724609 37.4174 0.724609 37.6234C0.724609 37.8294 0.806441 38.0269 0.952103 38.1726C1.09776 38.3183 1.29532 38.4001 1.50132 38.4001H52.9714C53.1774 38.4001 53.375 38.3183 53.5207 38.1726C53.6663 38.0269 53.7482 37.8294 53.7482 37.6234C53.7482 37.4174 53.6663 37.2198 53.5207 37.0742C53.375 36.9285 53.1774 36.8467 52.9714 36.8467ZM47.0053 36.8467H38.2305V23.5908C38.2305 23.3848 38.1486 23.1872 38.003 23.0416C37.8573 22.8959 37.6598 22.8141 37.4538 22.8141H31.2753V12.2508C31.2747 11.633 31.0291 11.0406 30.5922 10.6037C30.1553 10.1669 29.563 9.9212 28.9451 9.92065H26.6513L32.1928 6.74235L47.0021 15.2344L47.0053 36.8467ZM26.1542 28.0439V36.8467H18.8479V28.0439H26.1542ZM27.7076 28.0439H28.9451C29.563 28.0434 30.1553 27.7977 30.5922 27.3609C31.0291 26.924 31.2747 26.3316 31.2753 25.7138V24.3675H36.6771V36.8467H27.7076V28.0439ZM32.1928 2.27263L50.1235 12.5615V15.2417L32.5791 5.17339C32.4613 5.10619 32.328 5.07085 32.1923 5.07085C32.0567 5.07085 31.9234 5.10619 31.8055 5.17339L23.5289 9.92065H18.8562L32.1928 2.27263ZM2.27803 25.7138V12.2508C2.27803 12.0448 2.35987 11.8472 2.50553 11.7016C2.65119 11.5559 2.84875 11.4741 3.05475 11.4741H28.9451C29.1511 11.4741 29.3487 11.5559 29.4944 11.7016C29.64 11.8472 29.7219 12.0448 29.7219 12.2508V25.7138C29.7219 25.9198 29.64 26.1174 29.4944 26.263C29.3487 26.4087 29.1511 26.4905 28.9451 26.4905H3.05475C2.84875 26.4905 2.65119 26.4087 2.50553 26.263C2.35987 26.1174 2.27803 25.9198 2.27803 25.7138ZM14.7054 28.0439H17.2945V36.8467H14.7054V28.0439Z" fill="#0B448E"/>
</svg>
