<svg width="63" height="63" viewBox="0 0 63 63" fill="none" xmlns="http://www.w3.org/2000/svg">
<path d="M39.1185 41.2471C38.9125 41.2471 38.715 41.3289 38.5693 41.4746C38.4236 41.6202 38.3418 41.8178 38.3418 42.0238V43.193C38.3418 43.399 38.4236 43.5966 38.5693 43.7422C38.715 43.8879 38.9125 43.9697 39.1185 43.9697C39.3245 43.9697 39.5221 43.8879 39.6677 43.7422C39.8134 43.5966 39.8952 43.399 39.8952 43.193V42.0238C39.8952 41.8178 39.8134 41.6202 39.6677 41.4746C39.5221 41.3289 39.3245 41.2471 39.1185 41.2471Z" fill="#0B448E"/>
<path d="M10.9398 28.9113H13.2181C13.4241 28.9113 13.6217 28.8295 13.7673 28.6838C13.913 28.5382 13.9948 28.3406 13.9948 28.1346C13.9948 27.9286 13.913 27.7311 13.7673 27.5854C13.6217 27.4397 13.4241 27.3579 13.2181 27.3579H10.9398C9.76746 27.3579 8.81365 28.3376 8.81365 29.541V29.6104C8.81365 30.8148 9.76746 31.7935 10.9398 31.7935H11.8656C12.0229 31.8077 12.1691 31.8803 12.2756 31.9969C12.3821 32.1135 12.4412 32.2657 12.4412 32.4236C12.4412 32.5815 12.3821 32.7338 12.2756 32.8504C12.1691 32.967 12.0229 33.0395 11.8656 33.0538H9.58726C9.38126 33.0538 9.1837 33.1356 9.03804 33.2813C8.89238 33.427 8.81055 33.6245 8.81055 33.8305C8.81055 34.0365 8.89238 34.2341 9.03804 34.3797C9.1837 34.5254 9.38126 34.6072 9.58726 34.6072H11.8656C13.0379 34.6072 13.9917 33.6275 13.9917 32.4241C13.9917 31.2208 13.0379 30.24 11.8656 30.24H10.9398C10.7805 30.232 10.6309 30.1612 10.5236 30.0433C10.4163 29.9253 10.36 29.7697 10.3671 29.6104V29.541C10.36 29.3817 10.4163 29.2261 10.5236 29.1081C10.6309 28.9901 10.7805 28.9194 10.9398 28.9113Z" fill="#0B448E"/>
<path d="M24.6768 33.0538H21.8288V28.1346C21.8288 27.9286 21.747 27.7311 21.6013 27.5854C21.4557 27.4397 21.2581 27.3579 21.0521 27.3579C20.8461 27.3579 20.6485 27.4397 20.5029 27.5854C20.3572 27.7311 20.2754 27.9286 20.2754 28.1346V33.8305C20.2754 34.0365 20.3572 34.2341 20.5029 34.3797C20.6485 34.5254 20.8461 34.6072 21.0521 34.6072H24.6768C24.8828 34.6072 25.0803 34.5254 25.226 34.3797C25.3716 34.2341 25.4535 34.0365 25.4535 33.8305C25.4535 33.6245 25.3716 33.427 25.226 33.2813C25.0803 33.1356 24.8828 33.0538 24.6768 33.0538Z" fill="#0B448E"/>
<path d="M30.415 28.9113C30.621 28.9113 30.8186 28.8295 30.9643 28.6838C31.1099 28.5382 31.1918 28.3406 31.1918 28.1346C31.1918 27.9286 31.1099 27.7311 30.9643 27.5854C30.8186 27.4397 30.621 27.3579 30.415 27.3579H26.7904C26.5844 27.3579 26.3868 27.4397 26.2412 27.5854C26.0955 27.7311 26.0137 27.9286 26.0137 28.1346V33.8305C26.0137 34.0365 26.0955 34.2341 26.2412 34.3797C26.3868 34.5254 26.5844 34.6072 26.7904 34.6072H30.415C30.621 34.6072 30.8186 34.5254 30.9643 34.3797C31.1099 34.2341 31.1918 34.0365 31.1918 33.8305C31.1918 33.6245 31.1099 33.427 30.9643 33.2813C30.8186 33.1356 30.621 33.0538 30.415 33.0538H27.5671V31.7593H30.415C30.621 31.7593 30.8186 31.6774 30.9643 31.5318C31.1099 31.3861 31.1918 31.1886 31.1918 30.9826C31.1918 30.7766 31.1099 30.579 30.9643 30.4333C30.8186 30.2877 30.621 30.2059 30.415 30.2059H27.5671V28.9113H30.415Z" fill="#0B448E"/>
<path d="M17.8593 27.8696C17.8049 27.7197 17.7057 27.5901 17.575 27.4986C17.4444 27.407 17.2888 27.3579 17.1292 27.3579C16.9697 27.3579 16.8141 27.407 16.6834 27.4986C16.5528 27.5901 16.4536 27.7197 16.3991 27.8696L14.3279 33.5655C14.2931 33.6614 14.2775 33.7632 14.282 33.8651C14.2865 33.967 14.3111 34.067 14.3543 34.1594C14.3975 34.2518 14.4584 34.3349 14.5337 34.4037C14.6089 34.4726 14.697 34.5259 14.7929 34.5607C14.8888 34.5956 14.9906 34.6111 15.0925 34.6066C15.1944 34.6021 15.2944 34.5775 15.3868 34.5344C15.4792 34.4912 15.5622 34.4302 15.6311 34.355C15.6999 34.2797 15.7533 34.1916 15.7881 34.0958L16.105 33.2258H18.1545L18.4652 34.0958C18.5 34.1916 18.5534 34.2797 18.6222 34.355C18.6911 34.4302 18.7741 34.4912 18.8665 34.5344C18.9589 34.5775 19.0589 34.6021 19.1608 34.6066C19.2627 34.6111 19.3645 34.5956 19.4604 34.5607C19.5563 34.5259 19.6444 34.4726 19.7196 34.4037C19.7949 34.3349 19.8558 34.2518 19.899 34.1594C19.9422 34.067 19.9668 33.967 19.9713 33.8651C19.9758 33.7632 19.9602 33.6614 19.9254 33.5655L17.8593 27.8696ZM16.6694 31.6724L17.1292 30.4079L17.5891 31.6724H16.6694Z" fill="#0B448E"/>
<path d="M56.9714 48.8467H52.5587V28.1344L54.5139 29.2559C54.6324 29.3239 54.7668 29.3594 54.9034 29.3588C55.04 29.3582 55.174 29.3217 55.292 29.2528C55.41 29.1839 55.5077 29.0851 55.5752 28.9663C55.6428 28.8476 55.6779 28.7132 55.6769 28.5766V24.1068C55.6769 23.9701 55.6408 23.8357 55.5722 23.7173C55.5037 23.599 55.4051 23.5008 55.2865 23.4327L36.5791 12.7026C36.4613 12.6354 36.328 12.6001 36.1923 12.6001C36.0567 12.6001 35.9234 12.6354 35.8055 12.7026L19.7338 21.9196H7.05475C6.43674 21.9202 5.84423 22.166 5.40733 22.6031C4.97043 23.0402 4.72488 23.6328 4.72461 24.2508V37.7138C4.72516 38.3316 4.97083 38.924 5.4077 39.3609C5.84456 39.7977 6.43692 40.0434 7.05475 40.0439H17.152V48.8467H5.50132C5.29532 48.8467 5.09776 48.9285 4.9521 49.0742C4.80644 49.2198 4.72461 49.4174 4.72461 49.6234C4.72461 49.8294 4.80644 50.0269 4.9521 50.1726C5.09776 50.3183 5.29532 50.4001 5.50132 50.4001H56.9714C57.1774 50.4001 57.375 50.3183 57.5207 50.1726C57.6663 50.0269 57.7482 49.8294 57.7482 49.6234C57.7482 49.4174 57.6663 49.2198 57.5207 49.0742C57.375 48.9285 57.1774 48.8467 56.9714 48.8467ZM51.0053 48.8467H42.2305V35.5908C42.2305 35.3848 42.1486 35.1872 42.003 35.0416C41.8573 34.8959 41.6598 34.8141 41.4538 34.8141H35.2753V24.2508C35.2747 23.633 35.0291 23.0406 34.5922 22.6037C34.1553 22.1669 33.563 21.9212 32.9451 21.9207H30.6513L36.1928 18.7423L51.0021 27.2344L51.0053 48.8467ZM30.1542 40.0439V48.8467H22.8479V40.0439H30.1542ZM31.7076 40.0439H32.9451C33.563 40.0434 34.1553 39.7977 34.5922 39.3609C35.0291 38.924 35.2747 38.3316 35.2753 37.7138V36.3675H40.6771V48.8467H31.7076V40.0439ZM36.1928 14.2726L54.1235 24.5615V27.2417L36.5791 17.1734C36.4613 17.1062 36.328 17.0709 36.1923 17.0709C36.0567 17.0709 35.9234 17.1062 35.8055 17.1734L27.5289 21.9207H22.8562L36.1928 14.2726ZM6.27803 37.7138V24.2508C6.27803 24.0448 6.35987 23.8472 6.50553 23.7016C6.65119 23.5559 6.84875 23.4741 7.05475 23.4741H32.9451C33.1511 23.4741 33.3487 23.5559 33.4944 23.7016C33.64 23.8472 33.7219 24.0448 33.7219 24.2508V37.7138C33.7219 37.9198 33.64 38.1174 33.4944 38.263C33.3487 38.4087 33.1511 38.4905 32.9451 38.4905H7.05475C6.84875 38.4905 6.65119 38.4087 6.50553 38.263C6.35987 38.1174 6.27803 37.9198 6.27803 37.7138ZM18.7054 40.0439H21.2945V48.8467H18.7054V40.0439Z" fill="#0B448E"/>
</svg>
