<svg width="54" height="39" viewBox="0 0 54 39" fill="none" xmlns="http://www.w3.org/2000/svg">
<path d="M35.1175 29.2471C34.9115 29.2471 34.714 29.3289 34.5683 29.4746C34.4227 29.6202 34.3408 29.8178 34.3408 30.0238V31.193C34.3408 31.399 34.4227 31.5966 34.5683 31.7422C34.714 31.8879 34.9115 31.9697 35.1175 31.9697C35.3235 31.9697 35.5211 31.8879 35.6667 31.7422C35.8124 31.5966 35.8942 31.399 35.8942 31.193V30.0238C35.8942 29.8178 35.8124 29.6202 35.6667 29.4746C35.5211 29.3289 35.3235 29.2471 35.1175 29.2471Z" fill="#202020"/>
<path d="M6.94075 16.9113H9.21911C9.4251 16.9113 9.62266 16.8295 9.76832 16.6838C9.91398 16.5382 9.99582 16.3406 9.99582 16.1346C9.99582 15.9286 9.91398 15.7311 9.76832 15.5854C9.62266 15.4397 9.4251 15.3579 9.21911 15.3579H6.94075C5.76843 15.3579 4.81463 16.3376 4.81463 17.541V17.6104C4.81463 18.8148 5.76843 19.7935 6.94075 19.7935H7.86659C8.02386 19.8077 8.17012 19.8803 8.27662 19.9969C8.38312 20.1135 8.44217 20.2657 8.44217 20.4236C8.44217 20.5815 8.38312 20.7338 8.27662 20.8504C8.17012 20.967 8.02386 21.0395 7.86659 21.0538H5.58824C5.38224 21.0538 5.18468 21.1356 5.03902 21.2813C4.89336 21.427 4.81152 21.6245 4.81152 21.8305C4.81152 22.0365 4.89336 22.2341 5.03902 22.3797C5.18468 22.5254 5.38224 22.6072 5.58824 22.6072H7.86659C9.03891 22.6072 9.99271 21.6275 9.99271 20.4241C9.99271 19.2208 9.03891 18.24 7.86659 18.24H6.94075C6.78149 18.232 6.63188 18.1612 6.52458 18.0433C6.41728 17.9253 6.36101 17.7697 6.36805 17.6104V17.541C6.36101 17.3817 6.41728 17.2261 6.52458 17.1081C6.63188 16.9901 6.78149 16.9194 6.94075 16.9113Z" fill="#202020"/>
<path d="M20.6777 21.0538H17.8298V16.1346C17.8298 15.9286 17.748 15.7311 17.6023 15.5854C17.4566 15.4397 17.2591 15.3579 17.0531 15.3579C16.8471 15.3579 16.6495 15.4397 16.5039 15.5854C16.3582 15.7311 16.2764 15.9286 16.2764 16.1346V21.8305C16.2764 22.0365 16.3582 22.2341 16.5039 22.3797C16.6495 22.5254 16.8471 22.6072 17.0531 22.6072H20.6777C20.8837 22.6072 21.0813 22.5254 21.227 22.3797C21.3726 22.2341 21.4544 22.0365 21.4544 21.8305C21.4544 21.6245 21.3726 21.427 21.227 21.2813C21.0813 21.1356 20.8837 21.0538 20.6777 21.0538Z" fill="#202020"/>
<path d="M26.4141 16.9113C26.6201 16.9113 26.8176 16.8295 26.9633 16.6838C27.1089 16.5382 27.1908 16.3406 27.1908 16.1346C27.1908 15.9286 27.1089 15.7311 26.9633 15.5854C26.8176 15.4397 26.6201 15.3579 26.4141 15.3579H22.7894C22.5834 15.3579 22.3859 15.4397 22.2402 15.5854C22.0945 15.7311 22.0127 15.9286 22.0127 16.1346V21.8305C22.0127 22.0365 22.0945 22.2341 22.2402 22.3797C22.3859 22.5254 22.5834 22.6072 22.7894 22.6072H26.4141C26.6201 22.6072 26.8176 22.5254 26.9633 22.3797C27.1089 22.2341 27.1908 22.0365 27.1908 21.8305C27.1908 21.6245 27.1089 21.427 26.9633 21.2813C26.8176 21.1356 26.6201 21.0538 26.4141 21.0538H23.5661V19.7593H26.4141C26.6201 19.7593 26.8176 19.6774 26.9633 19.5318C27.1089 19.3861 27.1908 19.1886 27.1908 18.9826C27.1908 18.7766 27.1089 18.579 26.9633 18.4333C26.8176 18.2877 26.6201 18.2059 26.4141 18.2059H23.5661V16.9113H26.4141Z" fill="#202020"/>
<path d="M13.8603 15.8696C13.8059 15.7197 13.7066 15.5901 13.576 15.4986C13.4454 15.407 13.2897 15.3579 13.1302 15.3579C12.9707 15.3579 12.815 15.407 12.6844 15.4986C12.5538 15.5901 12.4545 15.7197 12.4001 15.8696L10.3289 21.5655C10.2941 21.6614 10.2785 21.7632 10.283 21.8651C10.2875 21.967 10.3121 22.067 10.3552 22.1594C10.3984 22.2518 10.4594 22.3349 10.5346 22.4037C10.6099 22.4726 10.698 22.5259 10.7939 22.5607C10.8897 22.5956 10.9915 22.6111 11.0934 22.6066C11.1953 22.6021 11.2954 22.5775 11.3878 22.5344C11.4802 22.4912 11.5632 22.4302 11.6321 22.355C11.7009 22.2797 11.7543 22.1916 11.7891 22.0958L12.106 21.2258H14.1555L14.4662 22.0958C14.501 22.1916 14.5543 22.2797 14.6232 22.355C14.692 22.4302 14.7751 22.4912 14.8675 22.5344C14.9599 22.5775 15.0599 22.6021 15.1618 22.6066C15.2637 22.6111 15.3655 22.5956 15.4614 22.5607C15.5573 22.5259 15.6453 22.4726 15.7206 22.4037C15.7959 22.3349 15.8568 22.2518 15.9 22.1594C15.9432 22.067 15.9677 21.967 15.9723 21.8651C15.9768 21.7632 15.9612 21.6614 15.9264 21.5655L13.8603 15.8696ZM12.6704 19.6724L13.1302 18.4079L13.59 19.6724H12.6704Z" fill="#202020"/>
<path d="M52.9714 36.8467H48.5587V16.1344L50.5139 17.2559C50.6324 17.3239 50.7668 17.3593 50.9034 17.3588C51.04 17.3582 51.174 17.3217 51.292 17.2528C51.41 17.1839 51.5077 17.0851 51.5752 16.9663C51.6428 16.8476 51.6779 16.7132 51.6769 16.5766V12.1068C51.6769 11.9701 51.6408 11.8357 51.5722 11.7173C51.5037 11.599 51.4051 11.5008 51.2865 11.4327L32.5791 0.702632C32.4613 0.635436 32.328 0.600098 32.1923 0.600098C32.0567 0.600098 31.9234 0.635436 31.8055 0.702632L15.7338 9.91962H3.05475C2.43674 9.92017 1.84423 10.166 1.40733 10.6031C0.970434 11.0402 0.724884 11.6328 0.724609 12.2508V25.7138C0.725158 26.3316 0.97083 26.924 1.4077 27.3609C1.84456 27.7977 2.43692 28.0434 3.05475 28.0439H13.152V36.8467H1.50132C1.29532 36.8467 1.09776 36.9285 0.952103 37.0742C0.806441 37.2198 0.724609 37.4174 0.724609 37.6234C0.724609 37.8294 0.806441 38.0269 0.952103 38.1726C1.09776 38.3183 1.29532 38.4001 1.50132 38.4001H52.9714C53.1774 38.4001 53.375 38.3183 53.5207 38.1726C53.6663 38.0269 53.7482 37.8294 53.7482 37.6234C53.7482 37.4174 53.6663 37.2198 53.5207 37.0742C53.375 36.9285 53.1774 36.8467 52.9714 36.8467ZM47.0053 36.8467H38.2305V23.5908C38.2305 23.3848 38.1486 23.1872 38.003 23.0416C37.8573 22.8959 37.6598 22.8141 37.4538 22.8141H31.2753V12.2508C31.2747 11.633 31.0291 11.0406 30.5922 10.6037C30.1553 10.1669 29.563 9.9212 28.9451 9.92065H26.6513L32.1928 6.74235L47.0021 15.2344L47.0053 36.8467ZM26.1542 28.0439V36.8467H18.8479V28.0439H26.1542ZM27.7076 28.0439H28.9451C29.563 28.0434 30.1553 27.7977 30.5922 27.3609C31.0291 26.924 31.2747 26.3316 31.2753 25.7138V24.3675H36.6771V36.8467H27.7076V28.0439ZM32.1928 2.27263L50.1235 12.5615V15.2417L32.5791 5.17339C32.4613 5.10619 32.328 5.07085 32.1923 5.07085C32.0567 5.07085 31.9234 5.10619 31.8055 5.17339L23.5289 9.92065H18.8562L32.1928 2.27263ZM2.27803 25.7138V12.2508C2.27803 12.0448 2.35987 11.8472 2.50553 11.7016C2.65119 11.5559 2.84875 11.4741 3.05475 11.4741H28.9451C29.1511 11.4741 29.3487 11.5559 29.4944 11.7016C29.64 11.8472 29.7219 12.0448 29.7219 12.2508V25.7138C29.7219 25.9198 29.64 26.1174 29.4944 26.263C29.3487 26.4087 29.1511 26.4905 28.9451 26.4905H3.05475C2.84875 26.4905 2.65119 26.4087 2.50553 26.263C2.35987 26.1174 2.27803 25.9198 2.27803 25.7138ZM14.7054 28.0439H17.2945V36.8467H14.7054V28.0439Z" fill="#202020"/>
</svg>
