<svg width="50" height="49" viewBox="0 0 50 49" fill="none" xmlns="http://www.w3.org/2000/svg">
<path d="M24.7532 32.3411C23.9753 32.8598 22.9242 32.6496 22.4055 31.8715C21.8868 31.0936 22.0971 30.0424 22.8751 29.5237L33.0333 22.7514C33.6303 22.3535 34.3879 22.3847 34.9426 22.7721L45.0697 29.5237C45.8476 30.0424 46.0579 31.0936 45.5393 31.8715C45.0206 32.6496 43.9695 32.8598 43.1915 32.3411M24.7532 32.3411L33.9724 26.1949L43.1915 32.3411M24.7532 32.3411L24.7543 44.1002M43.1915 32.3411L43.1926 44.1002M44.0391 44.1002H23.9078M36.5119 44.1002V36.4813H31.4327V44.1002M33.9723 32.2927V32.295M12.8251 14.2511L15.0871 12.7431C15.684 12.345 16.4417 12.3763 16.9963 12.7638L27.1235 19.5154C27.9014 20.0341 28.1117 21.0852 27.5931 21.8632C27.0744 22.6412 26.0233 22.8515 25.2453 22.3328M25.2453 22.3328L16.0261 16.1865L6.80705 22.3328M25.2453 22.3328L25.2464 27.9435M6.80705 22.3328C6.0291 22.8515 4.97798 22.6412 4.45932 21.8632C3.94065 21.0852 4.15093 20.0341 4.92888 19.5154L7.19035 18.0076M6.80705 22.3328L6.80808 31.6831M24.7541 34.0919H9.56206M18.5656 34.0919V26.473H13.4865V34.0919M16.0261 22.284V22.2867M30.7718 4.24242L33.0333 2.73464C33.6303 2.33676 34.3879 2.36792 34.9426 2.75546L45.0697 9.50698C45.8477 10.0257 46.0579 11.0768 45.5393 11.8549C45.0206 12.6328 43.9695 12.8431 43.1915 12.3244M43.1915 12.3244L33.9724 6.17821L24.7533 12.3244M43.1915 12.3244L43.1926 24.0835M24.7533 12.3244C23.9753 12.8431 22.9241 12.6328 22.4055 11.8549C21.8869 11.0768 22.0971 10.0257 22.8751 9.50698L25.1371 7.99904M24.7533 12.3244L24.7543 17.9351M31.0361 24.0835H25.2465M45.8248 24.0835H36.9107M36.5119 23.8184V16.4647H31.4327V23.8185M33.9723 12.276V12.2783M4.1748 37.0184H10.8836C10.8836 36.0187 10.2276 35.1724 9.32274 34.8861C9.76005 34.0437 9.62545 32.9814 8.91861 32.2746C8.21177 31.5676 7.14947 31.433 6.3071 31.8703C6.02081 30.9655 5.17446 30.3095 4.1748 30.3095M18.7682 44.1002C18.7682 43.2087 19.3531 42.4538 20.1602 42.1984C19.7701 41.4471 19.8902 40.4998 20.5206 39.8693C21.151 39.2389 22.0984 39.1188 22.8497 39.509C23.1051 38.7018 23.8599 38.1168 24.7514 38.1168M10.0084 16.1285L10.0067 16.1296M27.9546 6.11972L27.9529 6.12082" stroke="#202020" stroke-width="1.5" stroke-miterlimit="2.613" stroke-linecap="round" stroke-linejoin="round"/>
</svg>
