<svg width="50" height="49" viewBox="0 0 50 49" fill="none" xmlns="http://www.w3.org/2000/svg">
<path d="M41.8857 39.9794H40.4785V16.0576C40.4785 15.8146 40.4156 15.5758 40.2959 15.3644C40.1762 15.1529 40.0038 14.9761 39.7955 14.8511L25.7238 6.40807C25.5052 6.27653 25.2548 6.20703 24.9997 6.20703C24.7445 6.20703 24.4942 6.27653 24.2756 6.40807L15.8326 11.4739C15.6242 11.5989 15.4518 11.7757 15.3322 11.9872C15.2125 12.1986 15.1495 12.4374 15.1495 12.6804V18.0018L10.2986 20.4275C10.0649 20.5444 9.86832 20.7241 9.73095 20.9464C9.59359 21.1687 9.52084 21.4249 9.52087 21.6862V39.9794H8.11371C7.7405 39.9794 7.38259 40.1276 7.11869 40.3915C6.8548 40.6554 6.70654 41.0133 6.70654 41.3865C6.70654 41.7597 6.8548 42.1177 7.11869 42.3815C7.38259 42.6454 7.7405 42.7937 8.11371 42.7937H41.8857C42.2589 42.7937 42.6168 42.6454 42.8807 42.3815C43.1446 42.1177 43.2928 41.7597 43.2928 41.3865C43.2928 41.0133 43.1446 40.6554 42.8807 40.3915C42.6168 40.1276 42.2589 39.9794 41.8857 39.9794ZM26.4069 39.9794H23.5925V34.3507H26.4069V39.9794ZM37.6642 39.9794H34.8498V24.5006C34.8498 24.1274 34.7016 23.7694 34.4377 23.5055C34.1738 23.2416 33.8159 23.0934 33.4427 23.0934H16.5567C16.1835 23.0934 15.8256 23.2416 15.5617 23.5055C15.2978 23.7694 15.1495 24.1274 15.1495 24.5006V35.7579C15.1495 36.1311 15.2978 36.489 15.5617 36.7529C15.8256 37.0168 16.1835 37.165 16.5567 37.165C16.9299 37.165 17.2878 37.0168 17.5517 36.7529C17.8156 36.489 17.9639 36.1311 17.9639 35.7579V25.9077H32.0355V39.9794H29.2212V32.9435C29.2212 32.5703 29.0729 32.2124 28.809 31.9485C28.5451 31.6846 28.1872 31.5364 27.814 31.5364H22.1854C21.8122 31.5364 21.4542 31.6846 21.1903 31.9485C20.9264 32.2124 20.7782 32.5703 20.7782 32.9435V39.9794H12.3352V22.5561L17.1585 20.1444C17.1764 20.1354 17.1936 20.1272 17.2107 20.1177L23.5925 16.9275V18.8719C23.5925 19.2451 23.7408 19.603 24.0047 19.8669C24.2686 20.1308 24.6265 20.2791 24.9997 20.2791C25.3729 20.2791 25.7308 20.1308 25.9947 19.8669C26.2586 19.603 26.4069 19.2451 26.4069 18.8719V14.6504C26.4069 14.4105 26.3456 14.1746 26.2288 13.9651C26.112 13.7555 25.9435 13.5794 25.7395 13.4532C25.5354 13.3271 25.3025 13.2553 25.0629 13.2445C24.8232 13.2337 24.5848 13.2844 24.3703 13.3917L17.9639 16.5948V13.4775L24.9997 9.25603L37.6642 16.8547V39.9794Z" fill="#0B448E"/>
</svg>
