<svg width="50" height="49" viewBox="0 0 50 49" fill="none" xmlns="http://www.w3.org/2000/svg">
<path d="M41.8852 39.9794H40.478V16.0576C40.478 15.8146 40.4151 15.5758 40.2954 15.3644C40.1757 15.1529 40.0033 14.9761 39.795 14.8511L25.7233 6.40807C25.5047 6.27653 25.2544 6.20703 24.9992 6.20703C24.744 6.20703 24.4937 6.27653 24.2751 6.40807L15.8321 11.4739C15.6238 11.5989 15.4514 11.7757 15.3317 11.9872C15.212 12.1986 15.1491 12.4374 15.149 12.6804V18.0018L10.2981 20.4275C10.0644 20.5444 9.86783 20.7241 9.73046 20.9464C9.5931 21.1687 9.52035 21.4249 9.52038 21.6862V39.9794H8.11322C7.74002 39.9794 7.3821 40.1276 7.1182 40.3915C6.85431 40.6554 6.70605 41.0133 6.70605 41.3865C6.70605 41.7597 6.85431 42.1177 7.1182 42.3815C7.3821 42.6454 7.74002 42.7937 8.11322 42.7937H41.8852C42.2584 42.7937 42.6163 42.6454 42.8802 42.3815C43.1441 42.1177 43.2923 41.7597 43.2923 41.3865C43.2923 41.0133 43.1441 40.6554 42.8802 40.3915C42.6163 40.1276 42.2584 39.9794 41.8852 39.9794ZM26.4064 39.9794H23.592V34.3507H26.4064V39.9794ZM37.6637 39.9794H34.8493V24.5006C34.8493 24.1274 34.7011 23.7694 34.4372 23.5055C34.1733 23.2416 33.8154 23.0934 33.4422 23.0934H16.5562C16.183 23.0934 15.8251 23.2416 15.5612 23.5055C15.2973 23.7694 15.149 24.1274 15.149 24.5006V35.7579C15.149 36.1311 15.2973 36.489 15.5612 36.7529C15.8251 37.0168 16.183 37.165 16.5562 37.165C16.9294 37.165 17.2873 37.0168 17.5512 36.7529C17.8151 36.489 17.9634 36.1311 17.9634 35.7579V25.9077H32.035V39.9794H29.2207V32.9435C29.2207 32.5703 29.0724 32.2124 28.8085 31.9485C28.5446 31.6846 28.1867 31.5364 27.8135 31.5364H22.1849C21.8117 31.5364 21.4537 31.6846 21.1899 31.9485C20.926 32.2124 20.7777 32.5703 20.7777 32.9435V39.9794H12.3347V22.5561L17.1581 20.1444C17.1759 20.1354 17.1931 20.1272 17.2103 20.1177L23.592 16.9275V18.8719C23.592 19.2451 23.7403 19.603 24.0042 19.8669C24.2681 20.1308 24.626 20.2791 24.9992 20.2791C25.3724 20.2791 25.7303 20.1308 25.9942 19.8669C26.2581 19.603 26.4064 19.2451 26.4064 18.8719V14.6504C26.4064 14.4105 26.3451 14.1746 26.2283 13.9651C26.1115 13.7555 25.9431 13.5794 25.739 13.4532C25.5349 13.3271 25.302 13.2553 25.0624 13.2445C24.8227 13.2337 24.5843 13.2844 24.3698 13.3917L17.9634 16.5948V13.4775L24.9992 9.25603L37.6637 16.8547V39.9794Z" fill="#202020"/>
</svg>
